<svg xmlns="http://www.w3.org/2000/svg" xmlns:xlink="http://www.w3.org/1999/xlink" viewBox="0 0 990 765"><defs><linearGradient id="b"><stop offset="0" stop-color="#73a0bf"/><stop offset=".125" stop-color="#e6e6e6"/><stop offset=".25" stop-color="#73a0bf" stop-opacity=".749"/><stop offset=".5" stop-color="#989898"/><stop offset="1" stop-color="#333"/></linearGradient><linearGradient id="a"><stop offset="0"/><stop offset=".385"/><stop offset=".599" stop-color="#666"/><stop offset=".715"/><stop offset="1"/></linearGradient><linearGradient id="m" x1="1536.3" x2="1533.5" y1="-16.177" y2="-31.899" gradientTransform="translate(408.24 725.51)scale(.30801)" gradientUnits="userSpaceOnUse"><stop offset="0" stop-color="#797979"/><stop offset=".043" stop-color="#797979" stop-opacity=".996"/><stop offset=".043" stop-color="#797979" stop-opacity=".992"/><stop offset=".085" stop-color="#797979" stop-opacity=".984"/><stop offset=".238" stop-color="#191919"/><stop offset=".375" stop-color="#ccc"/><stop offset=".462" stop-color="#0ff"/><stop offset=".51" stop-color="#e6e6e6"/><stop offset=".594" stop-color="gray"/><stop offset="1" stop-color="#666"/></linearGradient><linearGradient id="k" x1="312.32" x2="315.74" y1="828.6" y2="847.29" gradientTransform="translate(408.24 472.72)scale(.30801)" gradientUnits="userSpaceOnUse" xlink:href="#b"/><linearGradient id="j" x1="-165.06" x2="-159.59" y1="934.46" y2="1055.3" gradientTransform="translate(408.24 472.72)scale(.30801)" gradientUnits="userSpaceOnUse"><stop offset="0" stop-color="#797979"/><stop offset=".011" stop-color="#797979" stop-opacity=".996"/><stop offset=".021" stop-color="#797979" stop-opacity=".996"/><stop offset=".043" stop-color="#797979" stop-opacity=".992"/><stop offset=".085" stop-color="#797979" stop-opacity=".984"/><stop offset=".171" stop-color="#797979" stop-opacity=".969"/><stop offset=".268" stop-color="#ccc"/><stop offset=".33" stop-color="#0ff"/><stop offset=".385" stop-color="#e6e6e6"/><stop offset=".594" stop-color="gray"/><stop offset="1" stop-color="#666"/></linearGradient><linearGradient id="i" x1="67.605" x2="67.605" y1="944.91" y2="1012.5" gradientTransform="translate(408.24 472.72)scale(.30801)" gradientUnits="userSpaceOnUse"><stop offset="0" stop-color="#797979"/><stop offset=".462" stop-color="#ccc"/><stop offset="1" stop-color="#7f7f7f"/></linearGradient><linearGradient id="h" x1="44.06" x2="46.321" y1="872.19" y2="889.66" gradientTransform="translate(408.24 472.72)scale(.30801)" gradientUnits="userSpaceOnUse" xlink:href="#b"/><filter id="e" width="1.081" height="1.663" x="-.041" y="-.331"><feGaussianBlur stdDeviation=".833"/></filter><filter id="f" width="1.077" height="1.67" x="-.038" y="-.335"><feGaussianBlur stdDeviation=".373"/></filter><filter id="l" color-interpolation-filters="sRGB"><feGaussianBlur in="SourceGraphic" result="result0" stdDeviation="6"/><feDiffuseLighting result="result5" surfaceScale="10"><feDistantLight azimuth="235" elevation="25"/></feDiffuseLighting><feComposite in="result5" in2="SourceGraphic" k1="1" k3=".6" operator="arithmetic" result="result4"/></filter><filter id="c" color-interpolation-filters="sRGB"><feGaussianBlur in="SourceGraphic" result="result0" stdDeviation="6"/><feDiffuseLighting result="result5" surfaceScale="10"><feDistantLight azimuth="235" elevation="25"/></feDiffuseLighting><feComposite in="result5" in2="SourceGraphic" k1="1" k3=".6" operator="arithmetic" result="result4"/></filter><radialGradient id="d" cx="-1061.1" cy="229.1" r="15.113" gradientTransform="rotate(91.24 -1208.436 449.52)scale(1.34952 1.33801)" gradientUnits="userSpaceOnUse" xlink:href="#a"/><radialGradient id="g" cx="202.29" cy="227.75" r="23.251" gradientTransform="matrix(0 1.6557 -1.6119 0 581.39 186.67)" gradientUnits="userSpaceOnUse" xlink:href="#a"/></defs><g transform="translate(0 -287.36)"><path fill="#fff" stroke="#000" stroke-width=".275" d="m821.86 680.32 98.58-101.72c3.545-2.435 6.556-2.68 10.957-2.816l24.025.741-48.083 131.68-126.49-13.56c14.566-2.365 29.634-5.477 41.009-14.327z" style="color:#000"/><path fill="none" stroke="#000" stroke-linejoin="bevel" stroke-width=".109" d="m803.17 690.49 21.749-6.436 98.414-105.21h-3.048" style="color:#000"/><g fill="none" stroke-linejoin="bevel"><path stroke="#333" stroke-width=".709" d="m1768.5 348.21-40.71-.72-208.59 387.65 10.087 6.845 94.029 12.249" style="color:#000" transform="translate(408.24 472.72)scale(.30801)"/><path stroke="#333" stroke-width=".709" d="m1596.7 749.9 49.356-127.17 23.778.36M1697.9 373.78l-222.28 365.31M1325.1 720l71.693 5.044 262.08-350.39h-7.871zM1438.6 599.96l32.796 25.253M1528.8 504.36l21.191 15.515" style="color:#000" transform="translate(408.24 472.72)scale(.30801)"/><path stroke="gray" stroke-width="1.772" d="M1650.3 374.26h63.36" style="color:#000" transform="translate(408.24 472.72)scale(.30801)"/></g><path fill="#c4c4c4" d="M1342.9 674.43c-19.58 14.887-38.776 22.752-63.524 31.374 23.78-.846 51.443-1.733 70.61-19.671l322.08-341.57-9.636-.234z" style="color:#000" transform="translate(408.24 472.72)scale(.30801)"/><path fill="#fff" stroke="#000" stroke-linecap="round" stroke-width=".216" d="M267.28 684.3h2.826l-2.91 9.973-8.144.25z" style="color:#000"/><path fill="red" stroke="red" stroke-linecap="round" stroke-width=".347" d="M-574.96 715.51c0 2.304-7.847 4.172-13.742 4.172s-7.607-1.868-7.607-4.172 1.712-4.172 7.607-4.172 13.742 1.868 13.742 4.172z" filter="url(#c)" style="color:#000" transform="translate(408.24 472.72)scale(.30801)"/><path fill="#fff" stroke="#000" stroke-width=".218" d="M604.68 773.02h6.697l1.24 7.797h-2.53z" style="color:#000"/><path fill="#ccc" stroke="#333" stroke-linecap="round" stroke-width=".724" d="M-1005.1 984.92h12.644v20.209h-12.644z" style="color:#000" transform="translate(408.24 472.72)scale(.30801)"/><path fill="#999" stroke="#333" stroke-linecap="round" stroke-width=".678" d="M-1004.8 1008.3h11.052v20.256h-11.052z" style="color:#000" transform="translate(408.24 472.72)scale(.30801)"/><path fill="#ccc" stroke="#333" stroke-linecap="round" stroke-width=".708" d="M-1008.2 1004.4h17.326v5.97h-17.326zM-1016.5 985.69h5.943v9.365h-9.815v-4.862z" style="color:#000" transform="translate(408.24 472.72)scale(.30801)"/><path fill="#ccc" stroke="#000" stroke-linejoin="bevel" stroke-width=".354" d="m-990.73 996.77 21.882 6.664-.27 1.35-21.882-4.952zM-980.55 1017.4l11.256-12.607 1.44.81-9.725 14.589z" style="color:#000" transform="translate(408.24 472.72)scale(.30801)"/><path fill="#ccc" stroke="#333" stroke-linecap="round" stroke-width=".153" d="M-956.6 189.76a1.44 1.44 0 1 1-2.882 0 1.44 1.44 0 0 1 2.882 0z" style="color:#000" transform="translate(614.792 682.198)scale(.52691)"/><path fill="url(#d)" stroke="#000" stroke-linecap="round" stroke-width=".549" d="M-1046 229.24c0 8.195-6.643 14.838-14.838 14.838s-14.838-6.643-14.838-14.838 6.643-14.838 14.838-14.838S-1046 221.045-1046 229.24z" style="color:#000" transform="translate(706.51 663.138)scale(.56856)"/><path fill="#b3b3b3" stroke="#333" stroke-linecap="round" stroke-width=".549" d="M-1046 229.24c0 8.195-6.643 14.838-14.838 14.838s-14.838-6.643-14.838-14.838 6.643-14.838 14.838-14.838S-1046 221.045-1046 229.24z" style="color:#000" transform="translate(400.518 729.262)scale(.2801)"/><path fill="gray" stroke="#333" stroke-linecap="round" stroke-width=".549" d="M-989.72 1026.5c-8.195 0-14.844 6.649-14.844 14.844s6.649 14.844 14.844 14.844 14.812-6.649 14.812-14.844-6.618-14.844-14.812-14.844zm0 2.844c6.627 0 12 5.373 12 12s-5.373 12-12 12-12-5.373-12-12 5.373-12 12-12z" style="color:#000" transform="translate(408.24 472.72)scale(.30801)"/><path fill="#e6e6e6" stroke="#333" stroke-linecap="round" stroke-width="2.662" d="M-1046 229.24c0 8.195-6.643 14.838-14.838 14.838s-14.838-6.643-14.838-14.838 6.643-14.838 14.838-14.838S-1046 221.045-1046 229.24z" style="color:#000" transform="translate(212.974 769.79)scale(.1033)"/><path fill="#ccc" stroke="#333" stroke-linecap="round" stroke-width=".744" d="M-1021.3 995.61h31.923v5.304h-31.923z" style="color:#000" transform="translate(408.24 472.72)scale(.30801)"/><path fill="#fff" stroke="#000" stroke-linejoin="bevel" stroke-width=".109" d="m123.71 772.64 2.316 7.113h1.749l-2.391-8.13z" style="color:#000"/><path fill="#fff" stroke="#000" stroke-width=".275" d="M50.936 715.39c33.006-21.169 63.835-19.41 95.534-22.15h639.28c57.602 4.668 115.77 10.988 172.54 19.362l.092 15.443c-.174 1.059-.701 1.41-1.723 1.62l-184.54 40.503a423 423 0 0 1-32.982 3.667l-365.36-.14-7.279.451-234.77-.545c-12.247.251-28.227-1.264-45.074-4.425-31.71-4.913-64.137-18.506-63.79-29.652.217-5.836 11.946-11.39 20.091-16.315z" style="color:#000"/><path fill="#fff" stroke="#000" stroke-width=".275" d="m87.065 768.69 19.188 2.51-.412 7.173-19.666-2.45z" style="color:#000"/><path fill="#fff" stroke="#000" stroke-width=".346" d="m359.05 749.94 5.472-3.412c10.873-7.602 20.682-11.189 30.846-11.823h141.48c41.62 11.563 60.704 17.976 60.468 27.111-4.192 14.543-49.099 17.775-53.973 17.775h-157.94l-20.332-7.22c-11.078 1.655-16.825-5.301-17.596-7.367v-6.495c2.112-3.059 5.327-4.896 6.97-5.16z" style="color:#000"/><path fill="#fff" stroke="#000" stroke-linejoin="bevel" stroke-width=".109" d="m123.71 772.64 2.316 7.113h1.749l-2.391-8.13z" style="color:#000"/><path fill="#fff" stroke="#000" stroke-width=".275" d="M50.936 715.39c33.006-21.169 63.835-19.41 95.534-22.15h639.28c57.602 4.668 115.77 10.988 172.54 19.362l.092 15.443c-.174 1.059-.701 1.41-1.723 1.62l-184.54 40.503a423 423 0 0 1-32.982 3.667l-365.36-.14-7.279.451-234.77-.545c-12.247.251-28.227-1.264-45.074-4.425-31.71-4.913-64.137-18.506-63.79-29.652.217-5.836 11.946-11.39 20.091-16.315z" style="color:#000"/><path fill="#fff" stroke="#000" stroke-width=".275" d="m87.065 768.69 19.188 2.51-.412 7.173-19.666-2.45z" style="color:#000"/><path fill="#fff" stroke="#000" stroke-width=".346" d="m359.05 749.94 5.472-3.412c10.873-7.602 20.682-11.189 30.846-11.823h141.48c41.62 11.563 60.704 17.976 60.468 27.111-4.192 14.543-49.099 17.775-53.973 17.775h-157.94l-20.332-7.22c-11.078 1.655-16.825-5.301-17.596-7.367v-6.495c2.112-3.059 5.327-4.896 6.97-5.16z" style="color:#000"/><path fill="#fff" stroke="#000" stroke-linejoin="bevel" stroke-width=".109" d="m123.71 772.64 2.316 7.113h1.749l-2.391-8.13z" style="color:#000"/><path fill="#fff" stroke="#000" stroke-width=".275" d="M50.936 715.39c33.006-21.169 63.835-19.41 95.534-22.15h639.28c57.602 4.668 115.77 10.988 172.54 19.362l.092 15.443c-.174 1.059-.701 1.41-1.723 1.62l-184.54 40.503a423 423 0 0 1-32.982 3.667l-365.36-.14-7.279.451-234.77-.545c-12.247.251-28.227-1.264-45.074-4.425-31.71-4.913-64.137-18.506-63.79-29.652.217-5.836 11.946-11.39 20.091-16.315z" style="color:#000"/><path fill="#fff" stroke="#000" stroke-width=".275" d="m87.065 768.69 19.188 2.51-.412 7.173-19.666-2.45z" style="color:#000"/><path fill="#fff" stroke="#000" stroke-width=".346" d="m359.05 749.94 5.472-3.412c10.873-7.602 20.682-11.189 30.846-11.823h141.48c41.62 11.563 60.704 17.976 60.468 27.111-4.192 14.543-49.099 17.775-53.973 17.775h-157.94l-20.332-7.22c-11.078 1.655-16.825-5.301-17.596-7.367v-6.495c2.112-3.059 5.327-4.896 6.97-5.16z" style="color:#000"/><path fill="#fff" stroke="#000" stroke-linejoin="bevel" stroke-width=".109" d="m123.71 772.64 2.316 7.113h1.749l-2.391-8.13z" style="color:#000"/><path fill="#fff" stroke="#000" stroke-width=".275" d="M50.936 715.39c33.006-21.169 63.835-19.41 95.534-22.15h639.28c57.602 4.668 115.77 10.988 172.54 19.362l.092 15.443c-.174 1.059-.701 1.41-1.723 1.62l-184.54 40.503a423 423 0 0 1-32.982 3.667l-365.36-.14-7.279.451-234.77-.545c-12.247.251-28.227-1.264-45.074-4.425-31.71-4.913-64.137-18.506-63.79-29.652.217-5.836 11.946-11.39 20.091-16.315z" style="color:#000"/><path fill="none" stroke="#999" stroke-linejoin="bevel" stroke-width=".327" d="m80.206 754.14 66.628 3.855 307.45 4.26" style="color:#000"/><path fill="none" stroke="#999" stroke-linejoin="bevel" stroke-width=".437" d="m939.61 733.51.245-18.847" style="color:#000"/><path fill="none" stroke="#999" stroke-linejoin="bevel" stroke-width=".327" d="M594.87 762.61h84.233c49.853.83 87.126-2.034 137.93-9.969l83.088-14.352M595.77 693.15l.37 70.87" style="color:#000"/><path fill="#fff" stroke="#000" stroke-width=".346" d="m359.05 749.94 5.472-3.412c10.873-7.602 20.682-11.189 30.846-11.823h141.48c41.62 11.563 60.704 17.976 60.468 27.111-4.192 14.543-49.099 17.775-53.973 17.775h-157.94l-20.332-7.22c-11.078 1.655-16.825-5.301-17.596-7.367v-6.495c2.112-3.059 5.327-4.896 6.97-5.16z" style="color:#000"/><path fill="#fff" stroke="#000" stroke-width=".275" d="m87.065 768.69 19.188 2.51-.412 7.173-19.666-2.45z" style="color:#000"/><g transform="translate(390.95 636.75)scale(.30801)"><rect width="49.035" height="6.029" x="-938.33" y="339.79" fill="#1a1a1a" filter="url(#e)" ry="3.014" style="color:#000"/><rect width="50.526" height="87.793" x="-939.43" y="254.24" fill="#fff" stroke="#666" stroke-width=".999" rx="3.439" ry="3.011" style="color:#000"/><g transform="translate(0 6)"><rect width="23.377" height="4.586" x="-932.6" y="258.19" fill="#333" rx="2.224" ry="1.477" style="color:#000"/><rect width="6.605" height="15.588" x="-904.79" y="278.6" fill="#0ff" stroke="#666" stroke-width=".709" rx="2.411" ry="2.411" style="color:#000"/><rect width="14.795" height="5.548" x="-928.31" y="271.99" fill="none" stroke="red" stroke-width=".354" rx="1.435" ry="1.435" style="color:#000"/><rect width="7.926" height="4.227" x="-920.12" y="307.39" fill="none" stroke="red" stroke-width=".354" rx=".866" ry=".866" style="color:#000"/><g fill="red"><path d="M-925.251 273.386v-.62h.24q.084 0 .124.012.055.017.088.06a.17.17 0 0 1 .033.107.18.18 0 0 1-.054.136q-.053.053-.184.053h-.163v.252zm.084-.325h.164q.078 0 .114-.028t.036-.085a.1.1 0 0 0-.018-.063.1.1 0 0 0-.043-.036.3.3 0 0 0-.09-.01h-.163zM-924.244 272.77h.085v.357q0 .09-.022.147a.18.18 0 0 1-.08.091.3.3 0 0 1-.147.034q-.126 0-.189-.06t-.063-.212v-.358h.084v.357q0 .084.017.122a.12.12 0 0 0 .054.057q.037.02.09.02.09 0 .13-.04.042-.041.041-.159zM-924.054 273.189l.08-.007q.006.05.029.08c.023.03.036.034.064.045s.06.018.094.018q.076 0 .117-.03c.04-.03.041-.045.041-.076a.08.08 0 0 0-.015-.048.1.1 0 0 0-.045-.033 1 1 0 0 0-.132-.037.5.5 0 0 1-.128-.043q-.038-.021-.059-.054a.1.1 0 0 1-.021-.075q0-.075.06-.123c.06-.048.096-.048.165-.048q.07 0 .124.023.053.022.082.064c.03.042.03.06.032.098l-.081.006q-.008-.06-.045-.09a.2.2 0 0 0-.11-.028.2.2 0 0 0-.109.025.08.08 0 0 0-.037.066q0 .038.027.059.028.02.124.041a1 1 0 0 1 .132.036.2.2 0 0 1 .088.063q.03.038.03.092a.16.16 0 0 1-.031.097.2.2 0 0 1-.085.066.3.3 0 0 1-.13.023.3.3 0 0 1-.188-.057.2.2 0 0 1-.072-.153zM-923.427 273.386v-.62h.084v.255h.331v-.254h.084v.619h-.084v-.292h-.33v.292zM-922.52 273.386v-.62h.084v.62zM-922.296 273.386v-.62h.086l.334.487v-.486h.08v.619h-.085l-.334-.487v.487zM-921.4 273.386v-.62h.281q.09 0 .13.018.043.017.07.058c.027.04.027.058.027.093a.15.15 0 0 1-.046.114.23.23 0 0 1-.133.055.2.2 0 0 1 .054.034.4.4 0 0 1 .066.08l.111.168h-.106l-.084-.13a1 1 0 0 0-.075-.1.14.14 0 0 0-.048-.036.2.2 0 0 0-.066-.01h-.097v.276zm.084-.346h.18q.06 0 .09-.012t.049-.036c.019-.024.018-.035.018-.057q0-.045-.034-.073c-.034-.028-.057-.027-.102-.027h-.201zM-920.762 273.386v-.62h.46v.074h-.376v.19h.351v.072h-.351v.21h.39v.074zM-920.17 273.386v-.62h.22q.082 0 .124.012.056.015.096.054c.04.04.049.06.064.1q.023.059.023.14 0 .105-.039.18a.23.23 0 0 1-.1.103.35.35 0 0 1-.158.03zm.085-.074h.135a.3.3 0 0 0 .125-.02.14.14 0 0 0 .065-.07.35.35 0 0 0 .03-.15.3.3 0 0 0-.032-.148.16.16 0 0 0-.083-.072.4.4 0 0 0-.107-.012h-.133zM-919.274 273.386v-.62h.43v.074h-.346v.191h.299v.073h-.299v.281zM-918.748 273.386v-.62h.085v.546h.313v.074zM-918.311 273.386l.244-.62h.09l.261.62h-.096l-.074-.188h-.266l-.07.188zm.184-.255h.215l-.066-.171a2 2 0 0 1-.045-.128 1 1 0 0 1-.035.118zM-917.65 273.386v-.62h.24q.084 0 .124.012.055.017.088.06a.17.17 0 0 1 .032.107.18.18 0 0 1-.053.136q-.053.053-.185.053h-.162v.252zm.084-.325h.164q.078 0 .114-.028t.036-.085a.1.1 0 0 0-.018-.063.1.1 0 0 0-.043-.036.3.3 0 0 0-.09-.01h-.163zM-917.09 273.189l.079-.007q.006.05.028.08c.022.03.037.034.065.045s.059.018.094.018q.075 0 .116-.03c.041-.03.042-.045.042-.076a.08.08 0 0 0-.015-.048.1.1 0 0 0-.046-.033 1 1 0 0 0-.131-.037.5.5 0 0 1-.128-.043q-.037-.021-.06-.054c-.022-.033-.02-.047-.02-.075q0-.075.06-.123c.06-.048.096-.048.164-.048q.072 0 .124.023.053.022.083.064c.03.042.03.06.031.098l-.08.006q-.007-.06-.046-.09a.2.2 0 0 0-.11-.028.2.2 0 0 0-.108.025.08.08 0 0 0-.038.066q0 .038.028.059.027.02.124.041a1 1 0 0 1 .132.036q.058.024.088.063c.03.039.03.056.03.092a.16.16 0 0 1-.032.097.2.2 0 0 1-.085.066.3.3 0 0 1-.129.023.3.3 0 0 1-.188-.057.2.2 0 0 1-.073-.153zM-924.96 274.466v-.618h.24q.084 0 .124.011.055.016.088.06c.033.044.033.064.033.107a.18.18 0 0 1-.054.136q-.053.053-.184.053h-.163v.251zm.084-.324h.164q.078 0 .114-.028t.036-.085a.1.1 0 0 0-.018-.063.1.1 0 0 0-.043-.036.3.3 0 0 0-.09-.01h-.163zM-923.953 273.85h.085v.358q0 .09-.022.147a.18.18 0 0 1-.08.091.3.3 0 0 1-.147.033q-.126 0-.189-.06t-.063-.211v-.358h.084v.357q0 .084.017.122a.12.12 0 0 0 .054.057q.037.02.09.02.09 0 .13-.041.042-.04.041-.158zM-923.729 274.466v-.618h.084v.545h.313v.073zM-923.236 274.466v-.618h.084v.545h.313v.073zM-922.509 274.172q0-.159.088-.244a.3.3 0 0 1 .217-.085q.084 0 .153.038a.3.3 0 0 1 .11.11q.04.073.04.173a.32.32 0 0 1-.078.224.3.3 0 0 1-.225.096.29.29 0 0 1-.227-.098.31.31 0 0 1-.078-.214zm.087 0a.24.24 0 0 0 .063.178.2.2 0 0 0 .154.063.2.2 0 0 0 .155-.064q.063-.063.063-.187 0-.079-.032-.143-.025-.048-.075-.077c-.05-.029-.07-.029-.11-.029q-.095 0-.156.064c-.061.064-.062.107-.062.195M-921.378 273.85h.084v.358q0 .09-.021.147a.18.18 0 0 1-.08.091.3.3 0 0 1-.148.033q-.125 0-.188-.06t-.063-.211v-.358h.084v.357q0 .084.017.122a.12.12 0 0 0 .053.057q.037.02.091.02.09 0 .13-.041.04-.04.04-.158zM-920.986 274.466v-.545h-.21v-.073h.504v.073h-.21v.545zM-920.36 274.466v-.618h.085v.254h.33v-.254h.084v.618h-.084v-.291h-.33v.291zM-919.789 274.466l.245-.618h.09l.26.618h-.096l-.074-.187h-.265l-.07.187zm.184-.254h.215l-.066-.171a2 2 0 0 1-.045-.128 1 1 0 0 1-.034.118zM-919.128 274.466v-.618h.086l.334.485v-.485h.08v.618h-.085l-.334-.486v.486zM-918.49 274.466v-.618h.22q.081 0 .123.011.056.015.096.054c.04.039.049.06.064.099q.023.06.023.142 0 .106-.039.178a.23.23 0 0 1-.1.104.35.35 0 0 1-.158.03zm.084-.073h.135a.3.3 0 0 0 .125-.02.14.14 0 0 0 .065-.07.35.35 0 0 0 .03-.15.3.3 0 0 0-.032-.148.16.16 0 0 0-.082-.072.4.4 0 0 0-.108-.012h-.133zM-917.852 274.466v-.618h.084v.545h.313v.073zM-917.348 274.466v-.618h.46v.073h-.376v.19h.352v.072h-.352v.21h.39v.073zM-927.031 275.547v-.619h.282q.088 0 .13.018t.07.057c.027.04.026.058.026.094a.15.15 0 0 1-.046.113.23.23 0 0 1-.133.056.2.2 0 0 1 .054.034.4.4 0 0 1 .067.079l.11.168h-.105l-.085-.128a1 1 0 0 0-.074-.102.14.14 0 0 0-.049-.035.2.2 0 0 0-.066-.01h-.097v.275zm.084-.345h.18q.06 0 .09-.012.031-.011.05-.036c.018-.025.017-.035.017-.057q0-.047-.034-.073c-.034-.026-.057-.027-.102-.027h-.201zM-926.415 275.253q0-.159.087-.244a.3.3 0 0 1 .217-.085q.084 0 .154.038a.3.3 0 0 1 .11.11q.04.073.04.173a.32.32 0 0 1-.078.224.3.3 0 0 1-.226.095.29.29 0 0 1-.227-.097.31.31 0 0 1-.077-.214zm.086 0a.24.24 0 0 0 .064.178.2.2 0 0 0 .153.063.2.2 0 0 0 .155-.064q.063-.063.063-.187 0-.079-.032-.143a.2.2 0 0 0-.075-.077.2.2 0 0 0-.11-.029q-.095 0-.156.064c-.061.064-.062.107-.062.195M-925.531 275.547v-.546h-.21v-.073h.505v.073h-.211v.546zM-925.229 275.547l.245-.619h.09l.26.62h-.096l-.074-.188h-.266l-.07.187zm.184-.254h.215l-.066-.171a2 2 0 0 1-.045-.129 1 1 0 0 1-.035.119zM-924.4 275.547v-.546h-.21v-.073h.504v.073h-.21v.546zM-924.02 275.547v-.619h.46v.074h-.376v.19h.352v.072h-.352v.21h.39v.073zM-923.248 275.547l.245-.619h.09l.26.62h-.096l-.074-.188h-.265l-.07.187zm.184-.254h.215l-.066-.171a2 2 0 0 1-.045-.129 1 1 0 0 1-.034.119zM-922.61 275.35l.08-.006q.006.05.029.08c.023.03.036.034.064.045s.06.017.094.017a.2.2 0 0 0 .117-.029.09.09 0 0 0 .041-.076.08.08 0 0 0-.015-.048.1.1 0 0 0-.045-.034 1 1 0 0 0-.132-.036.5.5 0 0 1-.128-.043q-.038-.022-.059-.055a.1.1 0 0 1-.021-.075q0-.075.06-.122c.06-.047.096-.048.165-.048q.07 0 .124.022.053.023.082.065c.03.042.03.06.032.098l-.081.006q-.008-.06-.045-.09a.2.2 0 0 0-.11-.029.2.2 0 0 0-.109.026.08.08 0 0 0-.037.066q0 .038.027.058.028.021.124.042a1 1 0 0 1 .132.036q.059.024.088.062c.03.038.03.057.03.093a.16.16 0 0 1-.031.096q-.032.045-.085.067a.3.3 0 0 1-.13.023.3.3 0 0 1-.188-.057.2.2 0 0 1-.073-.153zM-921.77 275.35l.08-.006q.006.05.028.08c.022.03.037.034.065.045s.059.017.094.017a.2.2 0 0 0 .116-.029.09.09 0 0 0 .042-.076.08.08 0 0 0-.015-.048.1.1 0 0 0-.046-.034 1 1 0 0 0-.131-.036.5.5 0 0 1-.128-.043q-.038-.022-.06-.055c-.021-.033-.02-.047-.02-.075q0-.075.06-.122c.06-.047.096-.048.164-.048q.071 0 .124.022.053.023.083.065c.03.042.03.06.031.098l-.08.006q-.007-.06-.046-.09a.2.2 0 0 0-.11-.029.2.2 0 0 0-.108.026.08.08 0 0 0-.038.066q0 .038.028.058t.124.042a1 1 0 0 1 .132.036q.058.024.088.062c.03.038.03.057.03.093a.16.16 0 0 1-.032.096.2.2 0 0 1-.085.067.3.3 0 0 1-.13.023.3.3 0 0 1-.187-.057.2.2 0 0 1-.073-.153zM-921.154 275.547v-.619h.084v.255h.33v-.255h.084v.62h-.084v-.292h-.33v.291zM-920.539 275.253q0-.159.088-.244a.3.3 0 0 1 .217-.085q.084 0 .154.038a.3.3 0 0 1 .11.11q.04.073.04.173a.32.32 0 0 1-.078.224.3.3 0 0 1-.226.095.29.29 0 0 1-.227-.097.31.31 0 0 1-.077-.214zm.087 0a.24.24 0 0 0 .063.178.2.2 0 0 0 .154.063.2.2 0 0 0 .155-.064q.063-.063.063-.187 0-.079-.032-.143a.2.2 0 0 0-.075-.077.2.2 0 0 0-.11-.029.2.2 0 0 0-.156.064q-.062.063-.062.195M-919.71 275.547l-.169-.619h.086l.097.406q.016.063.027.127l.029-.115.12-.418h.102l.091.314q.034.114.05.219.012-.06.031-.135l.1-.398h.085l-.175.62h-.08l-.135-.472-.02-.073-.019.073-.135.471zM-918.983 275.547v-.619h.087l.334.486v-.486h.08v.62h-.086l-.334-.487v.486zM-918.165 275.547l.244-.619h.09l.26.62h-.096l-.074-.188h-.265l-.07.187zm.183-.254h.215l-.066-.171a2 2 0 0 1-.045-.129 1 1 0 0 1-.034.119zM-917.505 275.547v-.619h.282q.088 0 .13.018t.07.057c.027.04.026.058.026.094a.15.15 0 0 1-.045.113.23.23 0 0 1-.133.056.2.2 0 0 1 .054.034.4.4 0 0 1 .066.079l.11.168h-.105l-.085-.128a1 1 0 0 0-.074-.102.14.14 0 0 0-.049-.035.2.2 0 0 0-.066-.01h-.097v.275zm.084-.345h.181q.06 0 .09-.012.03-.011.049-.036c.019-.025.018-.035.018-.057q0-.047-.035-.073c-.035-.026-.057-.027-.102-.027h-.2zM-916.856 275.547v-.619h.282q.09 0 .13.018.043.017.07.057c.027.04.027.058.027.094a.15.15 0 0 1-.046.113.23.23 0 0 1-.133.056.2.2 0 0 1 .054.034.4.4 0 0 1 .066.079l.111.168h-.106l-.084-.128a1 1 0 0 0-.075-.102.14.14 0 0 0-.048-.035.2.2 0 0 0-.066-.01h-.098v.275zm.084-.345h.181q.06 0 .09-.012.03-.011.049-.036c.019-.025.018-.035.018-.057q0-.047-.035-.073c-.035-.026-.057-.027-.102-.027h-.2zM-916.24 275.253q0-.159.087-.244a.3.3 0 0 1 .218-.085q.084 0 .153.038a.3.3 0 0 1 .11.11q.04.073.04.173a.32.32 0 0 1-.078.224.3.3 0 0 1-.226.095.29.29 0 0 1-.226-.097.31.31 0 0 1-.078-.214zm.087 0a.24.24 0 0 0 .063.178.2.2 0 0 0 .154.063.2.2 0 0 0 .155-.064q.063-.063.063-.187 0-.079-.033-.143a.2.2 0 0 0-.075-.077.2.2 0 0 0-.109-.029q-.095 0-.157.064c-.062.064-.061.107-.061.195M-915.412 275.547l-.168-.619h.086l.097.406q.015.063.027.127l.028-.115.121-.418h.102l.09.314q.035.114.05.219.012-.06.032-.135l.1-.398h.084l-.174.62h-.081l-.135-.472-.02-.073-.018.073-.135.471zM-925.721 276.628v-.619h.24q.084 0 .124.012.055.015.088.06a.17.17 0 0 1 .033.106.18.18 0 0 1-.054.137q-.053.053-.184.053h-.163v.251zm.084-.324h.164q.078 0 .114-.028.036-.029.036-.085a.1.1 0 0 0-.018-.063.1.1 0 0 0-.043-.036.3.3 0 0 0-.09-.01h-.163zM-924.714 276.012h.085v.357q0 .09-.022.148a.18.18 0 0 1-.08.09.3.3 0 0 1-.148.034q-.125 0-.188-.06t-.063-.212v-.357h.084v.357q0 .084.017.122.016.037.053.057c.037.02.055.02.091.02q.09 0 .13-.041.04-.04.041-.158zM-924.49 276.628v-.619h.084v.546h.313v.073zM-923.998 276.628v-.619h.085v.546h.313v.073zM-923.259 276.628v-.619h.239q.072 0 .115.018a.16.16 0 0 1 .069.056.14.14 0 0 1 .004.161.17.17 0 0 1-.066.055q.055.015.088.055a.14.14 0 0 1 .032.095q0 .056-.03.098-.028.044-.076.062a.3.3 0 0 1-.133.02zm.084-.359h.138a.3.3 0 0 0 .077-.006.1.1 0 0 0 .05-.03.1.1 0 0 0 .018-.056.1.1 0 0 0-.016-.056.1.1 0 0 0-.043-.03.4.4 0 0 0-.096-.009h-.128zm0 .286h.158q.053 0 .078-.008.036-.011.054-.036c.018-.025.02-.038.02-.063a.1.1 0 0 0-.019-.06.1.1 0 0 0-.048-.035.3.3 0 0 0-.096-.011h-.147zM-922.733 276.628l.245-.619h.09l.26.62h-.096l-.074-.188h-.265l-.07.187zm.184-.254h.215l-.066-.171a2 2 0 0 1-.045-.129 1 1 0 0 1-.034.119zM-921.613 276.414l.084.02a.27.27 0 0 1-.098.156.28.28 0 0 1-.17.051.3.3 0 0 1-.151-.034.26.26 0 0 1-.103-.11.4.4 0 0 1-.04-.18q0-.102.04-.173a.27.27 0 0 1 .108-.107.32.32 0 0 1 .31.01.24.24 0 0 1 .093.135l-.082.019q-.043-.13-.17-.13a.2.2 0 0 0-.11.026.2.2 0 0 0-.074.081.3.3 0 0 0-.028.14q0 .126.056.19a.2.2 0 0 0 .149.063.2.2 0 0 0 .119-.039.2.2 0 0 0 .067-.118M-921.423 276.628v-.619h.084v.307l.316-.307h.114l-.267.251.279.368h-.111l-.227-.313-.104.099v.214zM-920.606 276.333q0-.157.088-.243a.3.3 0 0 1 .217-.085q.084 0 .153.038a.3.3 0 0 1 .11.11q.04.073.04.173a.32.32 0 0 1-.078.224.3.3 0 0 1-.225.095.29.29 0 0 1-.227-.098.31.31 0 0 1-.078-.214zm.087.001a.24.24 0 0 0 .063.178.2.2 0 0 0 .154.063.2.2 0 0 0 .155-.064q.063-.063.063-.187 0-.079-.032-.143a.2.2 0 0 0-.075-.077.2.2 0 0 0-.11-.029.2.2 0 0 0-.156.064q-.062.063-.062.195zM-919.475 276.012h.084v.357q0 .09-.021.148a.18.18 0 0 1-.08.09.3.3 0 0 1-.148.034q-.126 0-.188-.06-.063-.06-.063-.212v-.357h.084v.357q0 .084.017.122.015.037.053.057c.038.02.055.02.09.02q.09 0 .131-.041.04-.04.04-.158zM-919.095 276.628v-.546h-.209v-.073h.504v.073h-.21v.546zM-918.59 276.628l-.17-.619h.087l.096.406q.016.063.027.127l.029-.115.121-.418h.102l.09.314q.035.114.05.219.012-.06.032-.135l.1-.398h.084l-.174.62h-.081l-.135-.472-.02-.073-.018.073-.135.471zM-917.942 276.628l.245-.619h.09l.26.62h-.096l-.074-.188h-.265l-.07.187zm.184-.254h.215l-.066-.171a2 2 0 0 1-.045-.129 1 1 0 0 1-.034.119zM-917.281 276.628v-.619h.282q.088 0 .13.018.042.016.07.057c.027.041.026.058.026.094a.15.15 0 0 1-.046.113.23.23 0 0 1-.133.056.2.2 0 0 1 .054.034.4.4 0 0 1 .067.079l.11.168h-.105l-.085-.128a1 1 0 0 0-.074-.102.14.14 0 0 0-.049-.036.2.2 0 0 0-.066-.009h-.097v.275zm.084-.346h.18q.06 0 .09-.011.031-.012.05-.036c.018-.024.017-.035.017-.057q0-.047-.034-.074c-.034-.027-.057-.026-.102-.026h-.201zM-916.643 276.628v-.619h.22q.081 0 .123.012.056.015.096.054c.04.039.049.059.064.099q.023.06.023.141 0 .105-.039.179a.23.23 0 0 1-.1.104.35.35 0 0 1-.158.03zm.084-.073h.135a.3.3 0 0 0 .125-.021.14.14 0 0 0 .065-.069.35.35 0 0 0 .03-.15.3.3 0 0 0-.032-.148.16.16 0 0 0-.082-.072.4.4 0 0 0-.108-.013h-.133z"/></g><g fill="red"><path d="M-919.32 310.83v-2.681h1.59v.316h-1.3v.821h1.217v.315h-1.216v.913h1.35v.316zM-917.5 310.83l.85-1.397-.75-1.284h.346l.4.687q.124.212.176.33.072-.143.174-.306l.445-.712h.314l-.772 1.264.833 1.418h-.359l-.554-.957a4 4 0 0 1-.095-.179q-.075.147-.106.201l-.553.935zM-915.17 310.83v-2.681h.29v2.681zM-913.81 310.83v-2.365h-.724v-.317h1.743v.317h-.728v2.365z"/></g><g transform="translate(-1002.3 213.76)scale(.06316)"><path fill="#a00" d="M1176.9 792.05c67.434-45.511 167.83-24.104 201.2-2.994l3.643-7.391 32.424 36.458-49.112-3.535 3.673-7.272c-53.546-28.387-116.88-31.019-181.07 1.681l-10.755-16.948z" style="color:#000" transform="translate(0 287.36)"/><rect width="118.62" height="47.204" x="1379.8" y="1127.4" fill="none" stroke="#a00" stroke-width="2.404" ry="16.994" style="color:#000"/><g fill="#d40000"><path d="M1392.528 1152.321q0-8.994 3.326-13.827t8.285-4.833q3.204 0 5.846 2.159 2.64 2.159 4.182 6.272c1.542 4.113 1.542 6.008 1.543 9.797q0 7.82-2.984 12.735-3.286 5.42-8.607 5.42-5.363 0-8.628-5.564-2.964-5.035-2.963-12.16zm3.306.072q0 6.5 2.408 10.085t5.856 3.586q3.528 0 5.917-3.622t2.389-10.648q0-4.534-1.23-8.107-.948-2.735-2.852-4.377-1.905-1.643-4.163-1.643-3.629 0-5.977 3.597t-2.348 11.129zM1419.756 1169.447v-35.161h9.132q3.225 0 4.758.671 2.096.912 3.346 3.382t1.25 6.068q-.001 4.749-2.036 7.747c-2.035 2.998-3.703 2.998-7.036 2.998h-6.208v14.295zm3.206-18.444h6.269q2.963 0 4.334-1.595t1.37-4.808q0-2.087-.675-3.574t-1.632-2.039q-.958-.55-3.458-.551h-6.208zM1442.401 1169.447v-35.161h17.518v4.15h-14.312v10.768h13.405v4.125h-13.405v11.968h14.876v4.15zM1464.863 1169.447v-35.161h3.286l12.74 27.606v-27.606h3.064v35.16h-3.286l-12.72-27.63v27.63z"/></g><path fill="#9e1f19" stroke="#9e1f19" stroke-width="1.772" d="m1149.6 1220.1 75.898-8.06 3.079 29.976-75.898 8.855zM1414.4 1214.9l-78.281-4.09-1.49 29.977 77.486 7.267z" style="color:#000"/><path fill="#7e8a98" stroke="#7e8a98" stroke-width="1.904" d="M1282 926.28c-16.847 0-31.505 9.341-39.094 23.125l-96.094 11.719c-5.7 1.39-10.741 4.386-11.188 11.938.397 5.944 4.21 10.365 10.781 11.969l97.406 8.906c7.813 12.922 21.986 21.562 38.188 21.562 16.217 0 30.41-8.652 38.219-21.594l97-12.844c7.206-1.244 12.146-5.194 12.75-12.562-.385-5.333-2.382-10.482-13.188-12.969l-95.687-6.125c-7.59-13.784-22.247-23.125-39.094-23.125z" style="color:#000" transform="translate(0 287.36)"/><path stroke="#4d4d4d" stroke-width="1.772" d="M1248.9 985.68a2.554 2.554 0 1 1-5.107 0 2.554 2.554 0 0 1 5.107 0z" style="color:#000" transform="translate(10.002 287.36)"/><path stroke="#4d4d4d" stroke-width="1.772" d="M1248.9 985.68a2.554 2.554 0 1 1-5.107 0 2.554 2.554 0 0 1 5.107 0z" style="color:#000" transform="translate(34.261 243.31)"/><path stroke="#4d4d4d" stroke-width="1.772" d="M1248.9 985.68a2.554 2.554 0 1 1-5.107 0 2.554 2.554 0 0 1 5.107 0z" style="color:#000" transform="translate(61.074 287.36)"/></g><rect width="23.377" height="2.673" x="1721.2" y="1069.5" fill="#666" filter="url(#f)" rx="2.224" ry=".861" style="color:#000" transform="matrix(.95198 0 0 .88716 -2570.5 -688.85)"/></g></g><rect width="49.035" height="6.029" x="-556.57" y="872.33" fill="#1a1a1a" filter="url(#e)" ry="3.014" style="color:#000" transform="translate(408.24 472.72)scale(.30801)"/><g transform="translate(525.82 638.6)scale(.30801)"><rect width="23.377" height="4.586" x="-932.6" y="258.19" fill="#333" rx="2.224" ry="1.477" style="color:#000"/><rect width="6.605" height="15.588" x="-904.79" y="278.6" fill="#0ff" stroke="#666" stroke-width=".709" rx="2.411" ry="2.411" style="color:#000"/><rect width="14.795" height="5.548" x="-928.31" y="271.99" fill="none" stroke="red" stroke-width=".354" rx="1.435" ry="1.435" style="color:#000"/><rect width="7.926" height="4.227" x="-920.12" y="307.39" fill="none" stroke="red" stroke-width=".354" rx=".866" ry=".866" style="color:#000"/><text x="-822.698" y="306.044" fill="red" font-family="Arial Narrow" font-size=".968" transform="scale(1.1194 .8933)" xml:space="preserve" style="word-spacing:0;letter-spacing:0"><tspan x="-822.698" y="306.044" style="text-anchor:middle;text-align:center">PUSH IN RED FLAPS</tspan> <tspan x="-822.698" y="307.254" style="text-anchor:middle;text-align:center">PULL OUT HANDLE</tspan> <tspan x="-822.698" y="308.464" style="text-anchor:middle;text-align:center">ROTATE AS SHOWN ARROW</tspan> <tspan x="-822.698" y="309.673" style="text-anchor:middle;text-align:center">PULL BACK OUTWARD</tspan></text><text x="-919.563" y="310.835" fill="red" font-family="Arial" font-size="3.746" xml:space="preserve" style="word-spacing:0;letter-spacing:0"><tspan x="-919.563" y="310.835" font-family="Arial Narrow">EXIT</tspan></text><g transform="translate(-1002.3 213.76)scale(.06316)"><path fill="#a00" d="M1176.9 792.05c67.434-45.511 167.83-24.104 201.2-2.994l3.643-7.391 32.424 36.458-49.112-3.535 3.673-7.272c-53.546-28.387-116.88-31.019-181.07 1.681l-10.755-16.948z" style="color:#000" transform="translate(0 287.36)"/><rect width="118.62" height="47.204" x="1379.8" y="1127.4" fill="none" stroke="#a00" stroke-width="2.404" ry="16.994" style="color:#000"/><text x="1516.994" y="1072.072" fill="#d40000" font-family="Arial" font-size="45.031" transform="scale(.9168 1.0908)" xml:space="preserve" style="word-spacing:0;letter-spacing:0"><tspan x="1516.994" y="1072.072" font-family="Arial Narrow">OPEN</tspan></text><path fill="#9e1f19" stroke="#9e1f19" stroke-width="1.772" d="m1149.6 1220.1 75.898-8.06 3.079 29.976-75.898 8.855zM1414.4 1214.9l-78.281-4.09-1.49 29.977 77.486 7.267z" style="color:#000"/><path fill="#7e8a98" stroke="#7e8a98" stroke-width="1.904" d="M1282 926.28c-16.847 0-31.505 9.341-39.094 23.125l-96.094 11.719c-5.7 1.39-10.741 4.386-11.188 11.938.397 5.944 4.21 10.365 10.781 11.969l97.406 8.906c7.813 12.922 21.986 21.562 38.188 21.562 16.217 0 30.41-8.652 38.219-21.594l97-12.844c7.206-1.244 12.146-5.194 12.75-12.562-.385-5.333-2.382-10.482-13.188-12.969l-95.687-6.125c-7.59-13.784-22.247-23.125-39.094-23.125z" style="color:#000" transform="translate(0 287.36)"/><path stroke="#4d4d4d" stroke-width="1.772" d="M1248.9 985.68a2.554 2.554 0 1 1-5.107 0 2.554 2.554 0 0 1 5.107 0z" style="color:#000" transform="translate(10.002 287.36)"/><path stroke="#4d4d4d" stroke-width="1.772" d="M1248.9 985.68a2.554 2.554 0 1 1-5.107 0 2.554 2.554 0 0 1 5.107 0z" style="color:#000" transform="translate(34.261 243.31)"/><path stroke="#4d4d4d" stroke-width="1.772" d="M1248.9 985.68a2.554 2.554 0 1 1-5.107 0 2.554 2.554 0 0 1 5.107 0z" style="color:#000" transform="translate(61.074 287.36)"/></g><rect width="23.377" height="2.673" x="1721.2" y="1069.5" fill="#666" filter="url(#f)" rx="2.224" ry=".861" style="color:#000" transform="matrix(.95198 0 0 .88716 -2570.5 -688.85)"/></g><g transform="translate(740.64 636.75)scale(.30801)"><rect width="49.035" height="6.029" x="-938.33" y="339.79" fill="#1a1a1a" filter="url(#e)" ry="3.014" style="color:#000"/><rect width="50.526" height="87.793" x="-939.43" y="254.24" fill="#fff" stroke="#666" stroke-width=".999" rx="3.439" ry="3.011" style="color:#000"/><g transform="translate(0 6)"><rect width="23.377" height="4.586" x="-932.6" y="258.19" fill="#333" rx="2.224" ry="1.477" style="color:#000"/><rect width="6.605" height="15.588" x="-904.79" y="278.6" fill="#0ff" stroke="#666" stroke-width=".709" rx="2.411" ry="2.411" style="color:#000"/><rect width="14.795" height="5.548" x="-928.31" y="271.99" fill="none" stroke="red" stroke-width=".354" rx="1.435" ry="1.435" style="color:#000"/><rect width="7.926" height="4.227" x="-920.12" y="307.39" fill="none" stroke="red" stroke-width=".354" rx=".866" ry=".866" style="color:#000"/><text x="-822.698" y="306.044" fill="red" font-family="Arial Narrow" font-size=".968" transform="scale(1.1194 .8933)" xml:space="preserve" style="word-spacing:0;letter-spacing:0"><tspan x="-822.698" y="306.044" style="text-anchor:middle;text-align:center">PUSH IN RED FLAPS</tspan> <tspan x="-822.698" y="307.254" style="text-anchor:middle;text-align:center">PULL OUT HANDLE</tspan> <tspan x="-822.698" y="308.464" style="text-anchor:middle;text-align:center">ROTATE AS SHOWN ARROW</tspan> <tspan x="-822.698" y="309.673" style="text-anchor:middle;text-align:center">PULL BACK OUTWARD</tspan></text><text x="-919.563" y="310.835" fill="red" font-family="Arial" font-size="3.746" xml:space="preserve" style="word-spacing:0;letter-spacing:0"><tspan x="-919.563" y="310.835" font-family="Arial Narrow">EXIT</tspan></text><g transform="translate(-1002.3 213.76)scale(.06316)"><path fill="#a00" d="M1176.9 792.05c67.434-45.511 167.83-24.104 201.2-2.994l3.643-7.391 32.424 36.458-49.112-3.535 3.673-7.272c-53.546-28.387-116.88-31.019-181.07 1.681l-10.755-16.948z" style="color:#000" transform="translate(0 287.36)"/><rect width="118.62" height="47.204" x="1379.8" y="1127.4" fill="none" stroke="#a00" stroke-width="2.404" ry="16.994" style="color:#000"/><text x="1516.994" y="1072.072" fill="#d40000" font-family="Arial" font-size="45.031" transform="scale(.9168 1.0908)" xml:space="preserve" style="word-spacing:0;letter-spacing:0"><tspan x="1516.994" y="1072.072" font-family="Arial Narrow">OPEN</tspan></text><path fill="#9e1f19" stroke="#9e1f19" stroke-width="1.772" d="m1149.6 1220.1 75.898-8.06 3.079 29.976-75.898 8.855zM1414.4 1214.9l-78.281-4.09-1.49 29.977 77.486 7.267z" style="color:#000"/><path fill="#7e8a98" stroke="#7e8a98" stroke-width="1.904" d="M1282 926.28c-16.847 0-31.505 9.341-39.094 23.125l-96.094 11.719c-5.7 1.39-10.741 4.386-11.188 11.938.397 5.944 4.21 10.365 10.781 11.969l97.406 8.906c7.813 12.922 21.986 21.562 38.188 21.562 16.217 0 30.41-8.652 38.219-21.594l97-12.844c7.206-1.244 12.146-5.194 12.75-12.562-.385-5.333-2.382-10.482-13.188-12.969l-95.687-6.125c-7.59-13.784-22.247-23.125-39.094-23.125z" style="color:#000" transform="translate(0 287.36)"/><path stroke="#4d4d4d" stroke-width="1.772" d="M1248.9 985.68a2.554 2.554 0 1 1-5.107 0 2.554 2.554 0 0 1 5.107 0z" style="color:#000" transform="translate(10.002 287.36)"/><path stroke="#4d4d4d" stroke-width="1.772" d="M1248.9 985.68a2.554 2.554 0 1 1-5.107 0 2.554 2.554 0 0 1 5.107 0z" style="color:#000" transform="translate(34.261 243.31)"/><path stroke="#4d4d4d" stroke-width="1.772" d="M1248.9 985.68a2.554 2.554 0 1 1-5.107 0 2.554 2.554 0 0 1 5.107 0z" style="color:#000" transform="translate(61.074 287.36)"/></g><rect width="23.377" height="2.673" x="1721.2" y="1069.5" fill="#666" filter="url(#f)" rx="2.224" ry=".861" style="color:#000" transform="matrix(.95198 0 0 .88716 -2570.5 -688.85)"/></g></g><g transform="translate(898.95 636.75)scale(.30801)"><rect width="49.035" height="6.029" x="-938.33" y="339.79" fill="#1a1a1a" filter="url(#e)" ry="3.014" style="color:#000"/><rect width="50.526" height="87.793" x="-939.43" y="254.24" fill="#fff" stroke="#666" stroke-width=".999" rx="3.439" ry="3.011" style="color:#000"/><g transform="translate(0 6)"><rect width="23.377" height="4.586" x="-932.6" y="258.19" fill="#333" rx="2.224" ry="1.477" style="color:#000"/><rect width="6.605" height="15.588" x="-904.79" y="278.6" fill="#0ff" stroke="#666" stroke-width=".709" rx="2.411" ry="2.411" style="color:#000"/><rect width="14.795" height="5.548" x="-928.31" y="271.99" fill="none" stroke="red" stroke-width=".354" rx="1.435" ry="1.435" style="color:#000"/><rect width="7.926" height="4.227" x="-920.12" y="307.39" fill="none" stroke="red" stroke-width=".354" rx=".866" ry=".866" style="color:#000"/><text x="-822.698" y="306.044" fill="red" font-family="Arial Narrow" font-size=".968" transform="scale(1.1194 .8933)" xml:space="preserve" style="word-spacing:0;letter-spacing:0"><tspan x="-822.698" y="306.044" style="text-anchor:middle;text-align:center">PUSH IN RED FLAPS</tspan> <tspan x="-822.698" y="307.254" style="text-anchor:middle;text-align:center">PULL OUT HANDLE</tspan> <tspan x="-822.698" y="308.464" style="text-anchor:middle;text-align:center">ROTATE AS SHOWN ARROW</tspan> <tspan x="-822.698" y="309.673" style="text-anchor:middle;text-align:center">PULL BACK OUTWARD</tspan></text><text x="-919.563" y="310.835" fill="red" font-family="Arial" font-size="3.746" xml:space="preserve" style="word-spacing:0;letter-spacing:0"><tspan x="-919.563" y="310.835" font-family="Arial Narrow">EXIT</tspan></text><g transform="translate(-1002.3 213.76)scale(.06316)"><path fill="#a00" d="M1176.9 792.05c67.434-45.511 167.83-24.104 201.2-2.994l3.643-7.391 32.424 36.458-49.112-3.535 3.673-7.272c-53.546-28.387-116.88-31.019-181.07 1.681l-10.755-16.948z" style="color:#000" transform="translate(0 287.36)"/><rect width="118.62" height="47.204" x="1379.8" y="1127.4" fill="none" stroke="#a00" stroke-width="2.404" ry="16.994" style="color:#000"/><text x="1516.994" y="1072.072" fill="#d40000" font-family="Arial" font-size="45.031" transform="scale(.9168 1.0908)" xml:space="preserve" style="word-spacing:0;letter-spacing:0"><tspan x="1516.994" y="1072.072" font-family="Arial Narrow">OPEN</tspan></text><path fill="#9e1f19" stroke="#9e1f19" stroke-width="1.772" d="m1149.6 1220.1 75.898-8.06 3.079 29.976-75.898 8.855zM1414.4 1214.9l-78.281-4.09-1.49 29.977 77.486 7.267z" style="color:#000"/><path fill="#7e8a98" stroke="#7e8a98" stroke-width="1.904" d="M1282 926.28c-16.847 0-31.505 9.341-39.094 23.125l-96.094 11.719c-5.7 1.39-10.741 4.386-11.188 11.938.397 5.944 4.21 10.365 10.781 11.969l97.406 8.906c7.813 12.922 21.986 21.562 38.188 21.562 16.217 0 30.41-8.652 38.219-21.594l97-12.844c7.206-1.244 12.146-5.194 12.75-12.562-.385-5.333-2.382-10.482-13.188-12.969l-95.687-6.125c-7.59-13.784-22.247-23.125-39.094-23.125z" style="color:#000" transform="translate(0 287.36)"/><path stroke="#4d4d4d" stroke-width="1.772" d="M1248.9 985.68a2.554 2.554 0 1 1-5.107 0 2.554 2.554 0 0 1 5.107 0z" style="color:#000" transform="translate(10.002 287.36)"/><path stroke="#4d4d4d" stroke-width="1.772" d="M1248.9 985.68a2.554 2.554 0 1 1-5.107 0 2.554 2.554 0 0 1 5.107 0z" style="color:#000" transform="translate(34.261 243.31)"/><path stroke="#4d4d4d" stroke-width="1.772" d="M1248.9 985.68a2.554 2.554 0 1 1-5.107 0 2.554 2.554 0 0 1 5.107 0z" style="color:#000" transform="translate(61.074 287.36)"/></g><rect width="23.377" height="2.673" x="1721.2" y="1069.5" fill="#666" filter="url(#f)" rx="2.224" ry=".861" style="color:#000" transform="matrix(.95198 0 0 .88716 -2570.5 -688.85)"/></g></g><path fill="#fff" stroke="#666" stroke-width=".709" d="M-930.85 40.522a2.708 2.708 0 1 1-5.417 0 2.708 2.708 0 0 1 5.417 0z" style="color:#000" transform="translate(382.56 718.27)scale(.28077)"/><path fill="none" stroke="#666" stroke-linecap="round" stroke-linejoin="bevel" stroke-width=".764" d="m96.08 714.38 20.938-3.837" style="color:#000"/><rect width="4.744" height="5.662" x="147.05" y="724.49" fill="#0ff" stroke="#666" stroke-width=".218" rx="2.229" ry="2.229" style="color:#000"/><rect width="4.744" height="5.662" x="153.81" y="724.49" fill="#0ff" stroke="#666" stroke-width=".218" rx="2.229" ry="2.229" style="color:#000"/><rect width="4.744" height="5.662" x="160.99" y="724.49" fill="#0ff" stroke="#666" stroke-width=".218" rx="2.229" ry="2.229" style="color:#000"/><rect width="4.744" height="5.662" x="167.66" y="724.49" fill="#0ff" stroke="#666" stroke-width=".218" rx="2.229" ry="2.229" style="color:#000"/><rect width="4.744" height="5.662" x="174.67" y="724.49" fill="#0ff" stroke="#666" stroke-width=".218" rx="2.229" ry="2.229" style="color:#000"/><rect width="4.744" height="5.662" x="181.84" y="724.49" fill="#0ff" stroke="#666" stroke-width=".218" rx="2.229" ry="2.229" style="color:#000"/><rect width="4.744" height="5.662" x="188.68" y="724.49" fill="#0ff" stroke="#666" stroke-width=".218" rx="2.229" ry="2.229" style="color:#000"/><rect width="4.744" height="5.662" x="195.35" y="724.49" fill="#0ff" stroke="#666" stroke-width=".218" rx="2.229" ry="2.229" style="color:#000"/><rect width="4.744" height="5.662" x="202.7" y="724.49" fill="#0ff" stroke="#666" stroke-width=".218" rx="2.229" ry="2.229" style="color:#000"/><rect width="4.744" height="5.662" x="209.7" y="724.49" fill="#0ff" stroke="#666" stroke-width=".218" rx="2.229" ry="2.229" style="color:#000"/><rect width="4.744" height="5.662" x="223.3" y="724.49" fill="#0ff" stroke="#666" stroke-width=".218" rx="2.229" ry="2.229" style="color:#000"/><rect width="4.744" height="5.662" x="259.17" y="724.49" fill="#0ff" stroke="#666" stroke-width=".218" rx="2.229" ry="2.229" style="color:#000"/><path fill="#fff" stroke="#666" stroke-width=".709" d="M-930.85 40.522a2.708 2.708 0 1 1-5.417 0 2.708 2.708 0 0 1 5.417 0z" style="color:#000" transform="translate(517.12 718.19)scale(.28077)"/><rect width="4.744" height="5.662" x="272.52" y="724.49" fill="#0ff" stroke="#666" stroke-width=".218" rx="2.229" ry="2.229" style="color:#000"/><rect width="4.744" height="5.662" x="279.61" y="724.49" fill="#0ff" stroke="#666" stroke-width=".218" rx="2.229" ry="2.229" style="color:#000"/><rect width="4.744" height="5.662" x="286.87" y="724.49" fill="#0ff" stroke="#666" stroke-width=".218" rx="2.229" ry="2.229" style="color:#000"/><rect width="4.744" height="5.662" x="294.04" y="724.49" fill="#0ff" stroke="#666" stroke-width=".218" rx="2.229" ry="2.229" style="color:#000"/><rect width="4.744" height="5.662" x="301.21" y="724.49" fill="#0ff" stroke="#666" stroke-width=".218" rx="2.229" ry="2.229" style="color:#000"/><rect width="4.744" height="5.662" x="308.56" y="724.49" fill="#0ff" stroke="#666" stroke-width=".218" rx="2.229" ry="2.229" style="color:#000"/><rect width="4.744" height="5.662" x="315.81" y="724.49" fill="#0ff" stroke="#666" stroke-width=".218" rx="2.229" ry="2.229" style="color:#000"/><rect width="4.744" height="5.662" x="324.41" y="724.49" fill="#0ff" stroke="#666" stroke-width=".218" rx="2.229" ry="2.229" style="color:#000"/><rect width="4.744" height="5.662" x="331.5" y="724.49" fill="#0ff" stroke="#666" stroke-width=".218" rx="2.229" ry="2.229" style="color:#000"/><rect width="4.744" height="5.662" x="338.92" y="724.49" fill="#0ff" stroke="#666" stroke-width=".218" rx="2.229" ry="2.229" style="color:#000"/><rect width="4.744" height="5.662" x="346.26" y="724.49" fill="#0ff" stroke="#666" stroke-width=".218" rx="2.229" ry="2.229" style="color:#000"/><rect width="4.744" height="5.662" x="353.35" y="724.49" fill="#0ff" stroke="#666" stroke-width=".218" rx="2.229" ry="2.229" style="color:#000"/><rect width="4.744" height="5.662" x="371.2" y="724.49" fill="#0ff" stroke="#666" stroke-width=".218" rx="2.229" ry="2.229" style="color:#000"/><rect width="4.744" height="5.662" x="378.29" y="724.49" fill="#0ff" stroke="#666" stroke-width=".218" rx="2.229" ry="2.229" style="color:#000"/><rect width="4.744" height="5.662" x="384.88" y="724.49" fill="#0ff" stroke="#666" stroke-width=".218" rx="2.229" ry="2.229" style="color:#000"/><rect width="4.744" height="5.662" x="391.98" y="724.49" fill="#0ff" stroke="#666" stroke-width=".218" rx="2.229" ry="2.229" style="color:#000"/><rect width="4.744" height="5.662" x="409.49" y="724.49" fill="#0ff" stroke="#666" stroke-width=".218" rx="2.229" ry="2.229" style="color:#000"/><rect width="4.744" height="5.662" x="416.42" y="724.49" fill="#0ff" stroke="#666" stroke-width=".218" rx="2.229" ry="2.229" style="color:#000"/><rect width="4.744" height="5.662" x="423.26" y="724.49" fill="#0ff" stroke="#666" stroke-width=".218" rx="2.229" ry="2.229" style="color:#000"/><rect width="4.744" height="5.662" x="430.27" y="724.49" fill="#0ff" stroke="#666" stroke-width=".218" rx="2.229" ry="2.229" style="color:#000"/><rect width="4.744" height="5.662" x="437.02" y="724.49" fill="#0ff" stroke="#666" stroke-width=".218" rx="2.229" ry="2.229" style="color:#000"/><rect width="4.744" height="5.662" x="444.03" y="724.49" fill="#0ff" stroke="#666" stroke-width=".218" rx="2.229" ry="2.229" style="color:#000"/><rect width="4.744" height="5.662" x="471.31" y="724.49" fill="#0ff" stroke="#666" stroke-width=".218" rx="2.229" ry="2.229" style="color:#000"/><rect width="4.744" height="5.662" x="478.48" y="724.49" fill="#0ff" stroke="#666" stroke-width=".218" rx="2.229" ry="2.229" style="color:#000"/><rect width="4.744" height="5.662" x="485.32" y="724.49" fill="#0ff" stroke="#666" stroke-width=".218" rx="2.229" ry="2.229" style="color:#000"/><rect width="4.744" height="5.662" x="492" y="724.49" fill="#0ff" stroke="#666" stroke-width=".218" rx="2.229" ry="2.229" style="color:#000"/><rect width="4.744" height="5.662" x="498.75" y="724.49" fill="#0ff" stroke="#666" stroke-width=".218" rx="2.229" ry="2.229" style="color:#000"/><rect width="4.744" height="5.662" x="505.76" y="724.49" fill="#0ff" stroke="#666" stroke-width=".218" rx="2.229" ry="2.229" style="color:#000"/><rect width="4.744" height="5.662" x="512.85" y="724.49" fill="#0ff" stroke="#666" stroke-width=".218" rx="2.229" ry="2.229" style="color:#000"/><rect width="4.744" height="5.662" x="583.37" y="724.49" fill="#0ff" stroke="#666" stroke-width=".218" rx="2.229" ry="2.229" style="color:#000"/><rect width="4.744" height="5.662" x="590.01" y="724.49" fill="#0ff" stroke="#666" stroke-width=".218" rx="2.229" ry="2.229" style="color:#000"/><rect width="4.744" height="5.662" x="597.43" y="724.49" fill="#0ff" stroke="#666" stroke-width=".218" rx="2.229" ry="2.229" style="color:#000"/><rect width="4.744" height="5.662" x="634.37" y="724.49" fill="#0ff" stroke="#666" stroke-width=".218" rx="2.229" ry="2.229" style="color:#000"/><rect width="4.744" height="5.662" x="642.19" y="724.49" fill="#0ff" stroke="#666" stroke-width=".218" rx="2.229" ry="2.229" style="color:#000"/><rect width="4.744" height="5.662" x="649.63" y="724.49" fill="#0ff" stroke="#666" stroke-width=".218" rx="2.229" ry="2.229" style="color:#000"/><rect width="4.744" height="5.662" x="657.46" y="724.49" fill="#0ff" stroke="#666" stroke-width=".218" rx="2.229" ry="2.229" style="color:#000"/><rect width="4.744" height="5.662" x="665.09" y="724.49" fill="#0ff" stroke="#666" stroke-width=".218" rx="2.229" ry="2.229" style="color:#000"/><rect width="4.744" height="5.662" x="672.91" y="724.49" fill="#0ff" stroke="#666" stroke-width=".218" rx="2.229" ry="2.229" style="color:#000"/><rect width="4.744" height="5.662" x="680.54" y="724.49" fill="#0ff" stroke="#666" stroke-width=".218" rx="2.229" ry="2.229" style="color:#000"/><rect width="4.744" height="5.662" x="688.37" y="724.49" fill="#0ff" stroke="#666" stroke-width=".218" rx="2.229" ry="2.229" style="color:#000"/><rect width="4.744" height="5.662" x="695.81" y="724.49" fill="#0ff" stroke="#666" stroke-width=".218" rx="2.229" ry="2.229" style="color:#000"/><rect width="4.744" height="5.662" x="703.63" y="724.49" fill="#0ff" stroke="#666" stroke-width=".218" rx="2.229" ry="2.229" style="color:#000"/><rect width="4.744" height="5.662" x="711.27" y="724.49" fill="#0ff" stroke="#666" stroke-width=".218" rx="2.229" ry="2.229" style="color:#000"/><rect width="4.744" height="5.662" x="719.09" y="724.49" fill="#0ff" stroke="#666" stroke-width=".218" rx="2.229" ry="2.229" style="color:#000"/><rect width="4.744" height="5.662" x="726.53" y="724.49" fill="#0ff" stroke="#666" stroke-width=".218" rx="2.229" ry="2.229" style="color:#000"/><rect width="4.744" height="5.662" x="734.35" y="724.49" fill="#0ff" stroke="#666" stroke-width=".218" rx="2.229" ry="2.229" style="color:#000"/><rect width="4.744" height="5.662" x="741.99" y="724.49" fill="#0ff" stroke="#666" stroke-width=".218" rx="2.229" ry="2.229" style="color:#000"/><rect width="4.744" height="5.662" x="749.81" y="724.49" fill="#0ff" stroke="#666" stroke-width=".218" rx="2.229" ry="2.229" style="color:#000"/><rect width="4.744" height="5.662" x="757.25" y="724.49" fill="#0ff" stroke="#666" stroke-width=".218" rx="2.229" ry="2.229" style="color:#000"/><rect width="4.744" height="5.662" x="764.89" y="724.49" fill="#0ff" stroke="#666" stroke-width=".218" rx="2.229" ry="2.229" style="color:#000"/><rect width="4.744" height="5.662" x="772.71" y="724.49" fill="#0ff" stroke="#666" stroke-width=".218" rx="2.229" ry="2.229" style="color:#000"/><path fill="none" stroke="#666" stroke-linecap="round" stroke-linejoin="bevel" stroke-width=".764" d="m448.98 710.63 20.855 1.085M781.23 713.19l21.156 2.138" style="color:#000"/><g transform="translate(408.24 636.75)scale(.30801)"><rect width="49.035" height="6.029" x="1216.4" y="339.79" fill="#1a1a1a" filter="url(#e)" ry="3.014" style="color:#000"/><path fill="#fff" stroke="#666" stroke-width=".89" d="m1221.5 262.38 38.157 2.155c1.663.094 3.006 1.22 3.006 2.734v72.088c0 1.515-1.34 2.735-3.006 2.735H1221.5c-1.666 0-3.006-1.22-3.006-2.735v-74.243c0-1.514 1.343-2.828 3.006-2.734z" style="color:#000"/><g transform="translate(2154.7 11.819)"><rect width="23.377" height="4.586" x="-932.6" y="258.19" fill="#333" rx="2.224" ry="1.477" style="color:#000"/><rect width="6.605" height="15.588" x="-904.79" y="278.6" fill="#0ff" stroke="#666" stroke-width=".709" rx="2.411" ry="2.411" style="color:#000"/><rect width="14.795" height="5.548" x="-928.31" y="271.99" fill="none" stroke="red" stroke-width=".354" rx="1.435" ry="1.435" style="color:#000"/><rect width="7.926" height="4.227" x="-920.12" y="307.39" fill="none" stroke="red" stroke-width=".354" rx=".866" ry=".866" style="color:#000"/><text x="-822.698" y="306.044" fill="red" font-family="Arial Narrow" font-size=".968" transform="scale(1.1194 .8933)" xml:space="preserve" style="word-spacing:0;letter-spacing:0"><tspan x="-822.698" y="306.044" style="text-anchor:middle;text-align:center">PUSH IN RED FLAPS</tspan> <tspan x="-822.698" y="307.254" style="text-anchor:middle;text-align:center">PULL OUT HANDLE</tspan> <tspan x="-822.698" y="308.464" style="text-anchor:middle;text-align:center">ROTATE AS SHOWN ARROW</tspan> <tspan x="-822.698" y="309.673" style="text-anchor:middle;text-align:center">PULL BACK OUTWARD</tspan></text><text x="-919.563" y="310.835" fill="red" font-family="Arial" font-size="3.746" xml:space="preserve" style="word-spacing:0;letter-spacing:0"><tspan x="-919.563" y="310.835" font-family="Arial Narrow">EXIT</tspan></text><g transform="translate(-1002.3 213.76)scale(.06316)"><path fill="#a00" d="M1176.9 792.05c67.434-45.511 167.83-24.104 201.2-2.994l3.643-7.391 32.424 36.458-49.112-3.535 3.673-7.272c-53.546-28.387-116.88-31.019-181.07 1.681l-10.755-16.948z" style="color:#000" transform="translate(0 287.36)"/><rect width="118.62" height="47.204" x="1379.8" y="1127.4" fill="none" stroke="#a00" stroke-width="2.404" ry="16.994" style="color:#000"/><text x="1516.994" y="1072.072" fill="#d40000" font-family="Arial" font-size="45.031" transform="scale(.9168 1.0908)" xml:space="preserve" style="word-spacing:0;letter-spacing:0"><tspan x="1516.994" y="1072.072" font-family="Arial Narrow">OPEN</tspan></text><path fill="#9e1f19" stroke="#9e1f19" stroke-width="1.772" d="m1149.6 1220.1 75.898-8.06 3.079 29.976-75.898 8.855zM1414.4 1214.9l-78.281-4.09-1.49 29.977 77.486 7.267z" style="color:#000"/><path fill="#7e8a98" stroke="#7e8a98" stroke-width="1.904" d="M1282 926.28c-16.847 0-31.505 9.341-39.094 23.125l-96.094 11.719c-5.7 1.39-10.741 4.386-11.188 11.938.397 5.944 4.21 10.365 10.781 11.969l97.406 8.906c7.813 12.922 21.986 21.562 38.188 21.562 16.217 0 30.41-8.652 38.219-21.594l97-12.844c7.206-1.244 12.146-5.194 12.75-12.562-.385-5.333-2.382-10.482-13.188-12.969l-95.687-6.125c-7.59-13.784-22.247-23.125-39.094-23.125z" style="color:#000" transform="translate(0 287.36)"/><path stroke="#4d4d4d" stroke-width="1.772" d="M1248.9 985.68a2.554 2.554 0 1 1-5.107 0 2.554 2.554 0 0 1 5.107 0z" style="color:#000" transform="translate(10.002 287.36)"/><path stroke="#4d4d4d" stroke-width="1.772" d="M1248.9 985.68a2.554 2.554 0 1 1-5.107 0 2.554 2.554 0 0 1 5.107 0z" style="color:#000" transform="translate(34.261 243.31)"/><path stroke="#4d4d4d" stroke-width="1.772" d="M1248.9 985.68a2.554 2.554 0 1 1-5.107 0 2.554 2.554 0 0 1 5.107 0z" style="color:#000" transform="translate(61.074 287.36)"/></g><rect width="23.377" height="2.673" x="1721.2" y="1069.5" fill="#666" filter="url(#f)" rx="2.224" ry=".861" style="color:#000" transform="matrix(.95198 0 0 .88716 -2570.5 -688.85)"/></g></g><path d="m803.786 728.667.58.147q-.182.714-.656 1.09-.474.375-1.159.375-.708 0-1.152-.289c-.444-.289-.522-.47-.676-.836s-.232-.756-.232-1.175q0-.684.262-1.194c.262-.51.422-.598.744-.775a2.2 2.2 0 0 1 1.063-.264q.659 0 1.107.335t.625.941l-.571.135q-.153-.478-.443-.697t-.73-.218q-.505 0-.844.242a1.28 1.28 0 0 0-.477.65 2.6 2.6 0 0 0-.138.842q0 .56.163.977t.507.623q.345.207.745.206.488 0 .825-.28.338-.282.457-.835M804.803 728.889v-.541h1.653v.54zM807.144 730.204v-4.384h2.957v.518h-2.377v1.357h2.057v.518h-2.057v1.991zM810.963 730.204v-4.384h.58v4.384zM815.43 725.821h.58v2.533q0 .66-.15 1.05-.15.388-.54.632-.39.243-1.024.243-.616 0-1.008-.212a1.2 1.2 0 0 1-.559-.614q-.167-.402-.167-1.1v-2.532h.58v2.53q0 .57.106.842.105.27.365.417.258.146.632.146.64 0 .912-.29.273-.29.272-1.115zM816.507 730.204l1.684-4.384h.625l1.794 4.384h-.661l-.511-1.328h-1.833l-.482 1.328zm1.265-1.8h1.486l-.457-1.214q-.21-.553-.311-.91-.084.423-.236.838z"/><path fill="#0ff" stroke="#4d4d4d" stroke-linecap="round" stroke-linejoin="round" stroke-width=".461" d="M47.81 718.51h5.855l-2.558 4.643h-8.075zM54.943 718.51h4.105l-.673 6.326-5.922-1.683z" style="color:#000"/><path fill="none" stroke="#666" stroke-linejoin="bevel" stroke-width=".437" d="m36.083 727.23 1.764 3.217v23.757" style="color:#000"/><path fill="#b3b3b3" stroke="#000" stroke-linejoin="bevel" stroke-width=".354" d="m242.03 1025.7 10.263 16.463 3.278-4.775-11.902-13.256z" style="color:#000" transform="translate(408.24 472.72)scale(.30801)"/><path fill="#b3b3b3" stroke="#000" stroke-linejoin="bevel" stroke-width=".354" d="m260.98 1008.8-20.454 14.895-3.635 5.131.784.713 5.203-1.71 19.1-14.182z" style="color:#000" transform="translate(408.24 472.72)scale(.30801)"/><path fill="#535353" stroke="#000" stroke-linecap="round" stroke-width=".549" d="M259.62 1001.4h37.519v14.237H259.62z" style="color:#000" transform="translate(408.24 472.72)scale(.30801)"/><path fill="#b2b2b2" stroke="#000" stroke-linejoin="bevel" stroke-width=".354" d="m283.5 1012.9 11.29 9.9 12.562 5.862 2.345-.167-20.602-16.917z" style="color:#000" transform="translate(408.24 472.72)scale(.30801)"/><g fill="#fff"><path d="M264.81 187.81h30.987v6.7H264.81z" style="color:#000" transform="translate(408.24 725.113)scale(.30801)"/><path d="M250.38 192.84a1.925 1.925 0 1 1-3.85 0 1.925 1.925 0 0 1 3.85 0" style="color:#000" transform="translate(431.466 739.407)scale(.23272)"/></g><path fill="#b3b3b3" stroke="#b3b3b3" stroke-linecap="round" stroke-width=".549" d="M267.83 1013.3h16.917v17.587H267.83z" style="color:#000" transform="translate(408.24 472.72)scale(.30801)"/><path fill="#858585" stroke="#000" stroke-linecap="round" stroke-width=".564" d="M265.21 1010.8h20.863v7.02H265.21z" style="color:#000" transform="translate(408.24 472.72)scale(.30801)"/><path fill="#616161" stroke="#616161" stroke-linejoin="bevel" stroke-width=".354" d="m292.97 1037.3 12.87-8.418 1.675.793-11.944 9.432z" style="color:#000" transform="translate(408.24 472.72)scale(.30801)"/><path fill="#b3b3b3" stroke="#b3b3b3" stroke-linecap="round" stroke-width=".549" d="M229.76 1050.7h91.054v12.552H229.76z" style="color:#000" transform="translate(408.24 472.72)scale(.30801)"/><g stroke-linecap="round"><path fill="url(#g)" stroke="#000" stroke-width=".66" d="M241.62 521.63c0 15.244-12.358 27.601-27.601 27.601-15.244 0-27.601-12.358-27.601-27.601 0-15.244 12.358-27.601 27.601-27.601 15.244 0 27.601 12.358 27.601 27.601z" style="color:#000" transform="translate(427.22 636.603)scale(.30801)"/><path fill="#ccc" stroke="#ff0" stroke-width=".306" d="M226.83 521.63c0 7.075-5.735 12.81-12.81 12.81s-12.81-5.735-12.81-12.81 5.735-12.81 12.81-12.81 12.81 5.735 12.81 12.81z" style="color:#000" transform="translate(427.22 636.603)scale(.30801)"/><path fill="#999" stroke="#999" stroke-width=".344" d="M214.03 507.27c-7.929 0-14.375 6.446-14.375 14.375s6.446 14.344 14.375 14.344 14.344-6.415 14.344-14.344-6.415-14.375-14.344-14.375zm0 2.531c6.536 0 11.812 5.308 11.812 11.844a11.797 11.797 0 0 1-11.812 11.812c-6.536 0-11.844-5.276-11.844-11.812s5.308-11.844 11.844-11.844z" style="color:#000" transform="translate(427.22 636.603)scale(.30801)"/><path stroke="#000" stroke-width=".354" d="M207.53 236.19a1.416 1.416 0 1 1-2.832 0 1.416 1.416 0 0 1 2.832 0z" style="color:#000" transform="translate(427.262 724.2)scale(.30801)"/><path stroke="#000" stroke-width=".354" d="M207.53 236.19a1.416 1.416 0 1 1-2.832 0 1.416 1.416 0 0 1 2.832 0z" style="color:#000" transform="translate(428.051 722.58)scale(.30801)"/><path stroke="#000" stroke-width=".354" d="M207.53 236.19a1.416 1.416 0 1 1-2.832 0 1.416 1.416 0 0 1 2.832 0z" style="color:#000" transform="translate(429.63 721.956)scale(.30801)"/><path stroke="#000" stroke-width=".354" d="M207.53 236.19a1.416 1.416 0 1 1-2.832 0 1.416 1.416 0 0 1 2.832 0z" style="color:#000" transform="translate(431.25 722.498)scale(.30801)"/><path stroke="#000" stroke-width=".354" d="M207.53 236.19a1.416 1.416 0 1 1-2.832 0 1.416 1.416 0 0 1 2.832 0z" style="color:#000" transform="translate(432.122 723.908)scale(.30801)"/><path stroke="#000" stroke-width=".354" d="M207.53 236.19a1.416 1.416 0 1 1-2.832 0 1.416 1.416 0 0 1 2.832 0z" style="color:#000" transform="translate(427.594 725.778)scale(.30801)"/><path stroke="#000" stroke-width=".354" d="M207.53 236.19a1.416 1.416 0 1 1-2.832 0 1.416 1.416 0 0 1 2.832 0z" style="color:#000" transform="translate(429.006 726.776)scale(.30801)"/><path stroke="#000" stroke-width=".354" d="M207.53 236.19a1.416 1.416 0 1 1-2.832 0 1.416 1.416 0 0 1 2.832 0z" style="color:#000" transform="translate(430.792 726.733)scale(.30801)"/><path stroke="#000" stroke-width=".354" d="M207.53 236.19a1.416 1.416 0 1 1-2.832 0 1.416 1.416 0 0 1 2.832 0z" style="color:#000" transform="translate(432.038 725.572)scale(.30801)"/><path fill="#e6e6e6" stroke="#666" stroke-width=".528" d="M217.58 521.63a3.557 3.557 0 1 1-7.113 0 3.557 3.557 0 0 1 7.113 0z" style="color:#000" transform="translate(427.22 636.603)scale(.30801)"/></g><g stroke-linecap="round"><path fill="url(#g)" stroke="#000" stroke-width=".66" d="M241.62 521.63c0 15.244-12.358 27.601-27.601 27.601-15.244 0-27.601-12.358-27.601-27.601 0-15.244 12.358-27.601 27.601-27.601 15.244 0 27.601 12.358 27.601 27.601z" style="color:#000" transform="translate(445.996 636.603)scale(.30801)"/><path fill="#ccc" stroke="#ff0" stroke-width=".306" d="M226.83 521.63c0 7.075-5.735 12.81-12.81 12.81s-12.81-5.735-12.81-12.81 5.735-12.81 12.81-12.81 12.81 5.735 12.81 12.81z" style="color:#000" transform="translate(445.996 636.603)scale(.30801)"/><path fill="#999" stroke="#999" stroke-width=".344" d="M214.03 507.27c-7.929 0-14.375 6.446-14.375 14.375s6.446 14.344 14.375 14.344 14.344-6.415 14.344-14.344-6.415-14.375-14.344-14.375zm0 2.531c6.536 0 11.812 5.308 11.812 11.844a11.797 11.797 0 0 1-11.812 11.812c-6.536 0-11.844-5.276-11.844-11.812s5.308-11.844 11.844-11.844z" style="color:#000" transform="translate(445.996 636.603)scale(.30801)"/><path stroke="#000" stroke-width=".354" d="M207.53 236.19a1.416 1.416 0 1 1-2.832 0 1.416 1.416 0 0 1 2.832 0z" style="color:#000" transform="translate(446.037 724.2)scale(.30801)"/><path stroke="#000" stroke-width=".354" d="M207.53 236.19a1.416 1.416 0 1 1-2.832 0 1.416 1.416 0 0 1 2.832 0z" style="color:#000" transform="translate(446.827 722.58)scale(.30801)"/><path stroke="#000" stroke-width=".354" d="M207.53 236.19a1.416 1.416 0 1 1-2.832 0 1.416 1.416 0 0 1 2.832 0z" style="color:#000" transform="translate(448.405 721.956)scale(.30801)"/><path stroke="#000" stroke-width=".354" d="M207.53 236.19a1.416 1.416 0 1 1-2.832 0 1.416 1.416 0 0 1 2.832 0z" style="color:#000" transform="translate(450.025 722.498)scale(.30801)"/><path stroke="#000" stroke-width=".354" d="M207.53 236.19a1.416 1.416 0 1 1-2.832 0 1.416 1.416 0 0 1 2.832 0z" style="color:#000" transform="translate(450.897 723.908)scale(.30801)"/><path stroke="#000" stroke-width=".354" d="M207.53 236.19a1.416 1.416 0 1 1-2.832 0 1.416 1.416 0 0 1 2.832 0z" style="color:#000" transform="translate(446.37 725.778)scale(.30801)"/><path stroke="#000" stroke-width=".354" d="M207.53 236.19a1.416 1.416 0 1 1-2.832 0 1.416 1.416 0 0 1 2.832 0z" style="color:#000" transform="translate(447.782 726.776)scale(.30801)"/><path stroke="#000" stroke-width=".354" d="M207.53 236.19a1.416 1.416 0 1 1-2.832 0 1.416 1.416 0 0 1 2.832 0z" style="color:#000" transform="translate(449.568 726.733)scale(.30801)"/><path stroke="#000" stroke-width=".354" d="M207.53 236.19a1.416 1.416 0 1 1-2.832 0 1.416 1.416 0 0 1 2.832 0z" style="color:#000" transform="translate(450.814 725.572)scale(.30801)"/><path fill="#e6e6e6" stroke="#666" stroke-width=".528" d="M217.58 521.63a3.557 3.557 0 1 1-7.113 0 3.557 3.557 0 0 1 7.113 0z" style="color:#000" transform="translate(445.996 636.603)scale(.30801)"/></g><path fill="#b3b3b3" stroke="#000" stroke-linecap="round" stroke-width=".558" d="M304.44 1027h6.655v3.444h-6.655z" style="color:#000" transform="translate(408.24 472.72)scale(.30801)"/><g stroke-linecap="round"><path fill="url(#g)" stroke="#000" stroke-width=".66" d="M241.62 521.63c0 15.244-12.358 27.601-27.601 27.601-15.244 0-27.601-12.358-27.601-27.601 0-15.244 12.358-27.601 27.601-27.601 15.244 0 27.601 12.358 27.601 27.601z" style="color:#000" transform="translate(408.24 636.603)scale(.30801)"/><path fill="#ccc" stroke="#ff0" stroke-width=".306" d="M226.83 521.63c0 7.075-5.735 12.81-12.81 12.81s-12.81-5.735-12.81-12.81 5.735-12.81 12.81-12.81 12.81 5.735 12.81 12.81z" style="color:#000" transform="translate(408.24 636.603)scale(.30801)"/><path fill="#999" stroke="#999" stroke-width=".344" d="M214.03 507.27c-7.929 0-14.375 6.446-14.375 14.375s6.446 14.344 14.375 14.344 14.344-6.415 14.344-14.344-6.415-14.375-14.344-14.375zm0 2.531c6.536 0 11.812 5.308 11.812 11.844a11.797 11.797 0 0 1-11.812 11.812c-6.536 0-11.844-5.276-11.844-11.812s5.308-11.844 11.844-11.844z" style="color:#000" transform="translate(408.24 636.603)scale(.30801)"/><path stroke="#000" stroke-width=".354" d="M207.53 236.19a1.416 1.416 0 1 1-2.832 0 1.416 1.416 0 0 1 2.832 0z" style="color:#000" transform="translate(408.282 724.2)scale(.30801)"/><path stroke="#000" stroke-width=".354" d="M207.53 236.19a1.416 1.416 0 1 1-2.832 0 1.416 1.416 0 0 1 2.832 0z" style="color:#000" transform="translate(409.07 722.58)scale(.30801)"/><path stroke="#000" stroke-width=".354" d="M207.53 236.19a1.416 1.416 0 1 1-2.832 0 1.416 1.416 0 0 1 2.832 0z" style="color:#000" transform="translate(410.649 721.956)scale(.30801)"/><path stroke="#000" stroke-width=".354" d="M207.53 236.19a1.416 1.416 0 1 1-2.832 0 1.416 1.416 0 0 1 2.832 0z" style="color:#000" transform="translate(412.269 722.498)scale(.30801)"/><path stroke="#000" stroke-width=".354" d="M207.53 236.19a1.416 1.416 0 1 1-2.832 0 1.416 1.416 0 0 1 2.832 0z" style="color:#000" transform="translate(413.141 723.908)scale(.30801)"/><path stroke="#000" stroke-width=".354" d="M207.53 236.19a1.416 1.416 0 1 1-2.832 0 1.416 1.416 0 0 1 2.832 0z" style="color:#000" transform="translate(408.614 725.778)scale(.30801)"/><path stroke="#000" stroke-width=".354" d="M207.53 236.19a1.416 1.416 0 1 1-2.832 0 1.416 1.416 0 0 1 2.832 0z" style="color:#000" transform="translate(410.026 726.776)scale(.30801)"/><path stroke="#000" stroke-width=".354" d="M207.53 236.19a1.416 1.416 0 1 1-2.832 0 1.416 1.416 0 0 1 2.832 0z" style="color:#000" transform="translate(411.812 726.733)scale(.30801)"/><path stroke="#000" stroke-width=".354" d="M207.53 236.19a1.416 1.416 0 1 1-2.832 0 1.416 1.416 0 0 1 2.832 0z" style="color:#000" transform="translate(413.058 725.572)scale(.30801)"/><path fill="#e6e6e6" stroke="#666" stroke-width=".528" d="M217.58 521.63a3.557 3.557 0 1 1-7.113 0 3.557 3.557 0 0 1 7.113 0z" style="color:#000" transform="translate(408.24 636.603)scale(.30801)"/></g><path fill="#fff" stroke="#999" stroke-linecap="round" stroke-width=".216" d="m448.04 768.18 70.467.458-.07 10.652-70.471.198z" style="color:#000"/><path fill="none" stroke="#999" stroke-linejoin="bevel" stroke-width=".327" d="m480.57 766.3 89.643-.164" style="color:#000"/><path fill="#fff" stroke="#000" stroke-linecap="round" stroke-width=".169" d="M476.05 746.54h45.437l-20.992 26.379v10.22h-15.377V772.94l-9.068-11.996z" style="color:#000"/><rect width="15.563" height="27.041" x="236.47" y="715.06" fill="none" stroke="#666" stroke-width=".308" rx="1.059" ry=".928" style="color:#000"/><path fill="none" stroke="#666" stroke-linecap="round" stroke-linejoin="bevel" stroke-width=".764" d="m232.39 711.71 20.855-1.084" style="color:#000"/><path fill="none" stroke="#999" stroke-linejoin="bevel" stroke-width=".327" d="M527.79 693.17v38.426" style="color:#000"/><path fill="#fff" stroke="#000" stroke-linejoin="bevel" stroke-width=".241" d="m395.79 744.42 51.26-7.809 152.21-25.656c8.676-1.81 18.531-.07 26.275.968l-93.176 35.498.05 12.404-71.219 6.564-59.205-20.089z" style="color:#000"/><path fill="url(#h)" d="m433.35 738.74-6.2 3.716-9.269 3.059-18.076-1.673z" style="color:#000"/><path fill="#fff" stroke="#000" stroke-linecap="round" stroke-width=".35" d="M366.72 746.58c11.49-3.383 43.845-2.963 65.767-4.444 10.375 5.5 39.484 5.394 59.418 5.416l-25.619 19.83-27.268 1.248-69.504-1.247z" style="color:#000"/><path fill="#fff" stroke="#000" stroke-linecap="round" stroke-width=".35" d="m527.45 745.78 11.341-.34 2.664.305 4.158 2.208c-2.809 5.644-17.053 9.283-20.751 8.621-13.895-1.006-32.989-3.737-37.51-7.274z" style="color:#000"/><path fill="#fff" stroke="#000" stroke-width=".291" d="m365.63 745.65 19.637-.235c10.747.704 20.776 1.619 30.721 2.998l-1.882 41.521c-8.482 2.425-17.683 3.794-27.094 3.98h-20.826c-3.75-.306-7.423.041-10.11-5.842l-1.792-36.9c-.187-2.657 5.982-4.686 11.346-5.521z" style="color:#000"/><path fill="#fff" stroke="#000" stroke-width=".29" d="m413.54 754.74 2.128.019 18.67 5.091v19.311l-20.991 4.646.193-4.646z" style="color:#000"/><path fill="#fff" stroke="#000" stroke-width=".226" d="m447.7 769.15-14.704 4.864V763.42z" style="color:#000"/><path fill="#fff" stroke="#000" stroke-width=".291" d="m356.07 788.12-1.793-36.9c-.098-1.403 1.577-2.632 4.044-3.548l2.118 45.283c-1.644-.697-3.114-2.086-4.369-4.835z" style="color:#000"/><path fill="#fff" stroke="#000" stroke-linejoin="bevel" stroke-width=".437" d="M370.86 745.93v47.692M392.83 746.46v46.486" style="color:#000"/><path fill="#fff" stroke="#000" stroke-width=".218" d="m420.55 757.86 4.979.803v3.64l-4.979-.374zM420.55 767.38l4.979-.038v3.685l-4.979.09zM420.55 777l4.979-1.165v3.685l-4.979 1.217z" style="color:#000"/><g fill="#fff" stroke="#000" stroke-width=".354"><path d="M51.964 110.48h1.874v3.01h-1.874z" style="color:#000" transform="translate(408.24 725.18)scale(.30801)"/><path d="M51.964 403.63h1.874v3.01h-1.874z" style="color:#000" transform="translate(408.24 636.67)scale(.30801)"/></g><g fill="#fff" stroke="#000" stroke-width=".354"><path d="M51.964 110.48h1.874v3.01h-1.874z" style="color:#000" transform="translate(408.24 733.89)scale(.30801)"/><path d="M51.964 403.63h1.874v3.01h-1.874z" style="color:#000" transform="translate(408.24 645.38)scale(.30801)"/></g><g fill="#fff" stroke="#000" stroke-width=".354"><path d="M51.964 110.48h1.874v3.01h-1.874z" style="color:#000" transform="translate(408.24 742.53)scale(.30801)"/><path d="M51.964 403.63h1.874v3.01h-1.874z" style="color:#000" transform="translate(408.24 654.02)scale(.30801)"/></g><path fill="#fff" stroke="#000" stroke-linejoin="bevel" stroke-width=".289" d="M431.8 759.51v20.389" style="color:#000"/><path fill="#fff" stroke="#000" stroke-width=".291" d="m365.63 745.65 19.637-.235c10.747.704 20.776 1.619 30.721 2.998l-1.882 41.521c-8.482 2.425-17.683 3.794-27.094 3.98h-20.826c-3.75-.306-7.423.041-10.11-5.842l-1.792-36.9c-.187-2.657 5.982-4.686 11.346-5.521z" style="color:#000"/><path fill="none" stroke="#000" stroke-linejoin="bevel" stroke-width=".109" d="M477.66 758.56h-44.28v3.62" style="color:#000"/><path fill="#fff" stroke="#000" stroke-width=".29" d="m413.54 754.74 2.128.019 18.67 5.091v19.311l-20.991 4.646.193-4.646z" style="color:#000"/><path fill="#fff" stroke="#000" stroke-width=".226" d="m447.7 769.15-14.704 4.864V763.42z" style="color:#000"/><path fill="#fff" stroke="#000" stroke-width=".291" d="m356.07 788.12-1.793-36.9c-.098-1.403 1.577-2.632 4.044-3.548l2.118 45.283c-1.644-.697-3.114-2.086-4.369-4.835z" style="color:#000"/><path fill="#fff" stroke="#000" stroke-linejoin="bevel" stroke-width=".437" d="M370.86 745.93v47.692M392.83 746.46v46.486" style="color:#000"/><path fill="#fff" stroke="#000" stroke-width=".218" d="m420.55 757.86 4.979.803v3.64l-4.979-.374zM420.55 767.38l4.979-.038v3.685l-4.979.09zM420.55 777l4.979-1.165v3.685l-4.979 1.217z" style="color:#000"/><g fill="#fff" stroke="#000" stroke-width=".354"><path d="M51.964 110.48h1.874v3.01h-1.874z" style="color:#000" transform="translate(408.24 725.18)scale(.30801)"/><path d="M51.964 403.63h1.874v3.01h-1.874z" style="color:#000" transform="translate(408.24 636.67)scale(.30801)"/></g><g fill="#fff" stroke="#000" stroke-width=".354"><path d="M51.964 110.48h1.874v3.01h-1.874z" style="color:#000" transform="translate(408.24 733.89)scale(.30801)"/><path d="M51.964 403.63h1.874v3.01h-1.874z" style="color:#000" transform="translate(408.24 645.38)scale(.30801)"/></g><g fill="#fff" stroke="#000" stroke-width=".354"><path d="M51.964 110.48h1.874v3.01h-1.874z" style="color:#000" transform="translate(408.24 742.53)scale(.30801)"/><path d="M51.964 403.63h1.874v3.01h-1.874z" style="color:#000" transform="translate(408.24 654.02)scale(.30801)"/></g><path fill="#fff" stroke="#000" stroke-linejoin="bevel" stroke-width=".289" d="M431.8 759.51v20.389" style="color:#000"/><path fill="#fff" stroke="#000" stroke-width=".291" d="m365.63 745.65 19.637-.235c10.747.704 20.776 1.619 30.721 2.998l-1.882 41.521c-8.482 2.425-17.683 3.794-27.094 3.98h-20.826c-3.75-.306-7.423.041-10.11-5.842l-1.792-36.9c-.187-2.657 5.982-4.686 11.346-5.521z" style="color:#000"/><path fill="#fff" stroke="#000" stroke-width=".29" d="m413.54 754.74 2.128.019 18.67 5.091v19.311l-20.991 4.646.193-4.646z" style="color:#000"/><path fill="#fff" stroke="#000" stroke-width=".226" d="m447.7 769.15-14.704 4.864V763.42z" style="color:#000"/><path fill="#fff" stroke="#000" stroke-width=".291" d="m356.07 788.12-1.793-36.9c-.098-1.403 1.577-2.632 4.044-3.548l2.118 45.283c-1.644-.697-3.114-2.086-4.369-4.835z" style="color:#000"/><path fill="#fff" stroke="#000" stroke-linejoin="bevel" stroke-width=".437" d="M370.86 745.93v47.692M392.83 746.46v46.486" style="color:#000"/><path fill="#fff" stroke="#000" stroke-width=".218" d="m420.55 757.86 4.979.803v3.64l-4.979-.374zM420.55 767.38l4.979-.038v3.685l-4.979.09zM420.55 777l4.979-1.165v3.685l-4.979 1.217z" style="color:#000"/><g fill="#fff" stroke="#000" stroke-width=".354"><path d="M51.964 110.48h1.874v3.01h-1.874z" style="color:#000" transform="translate(408.24 725.18)scale(.30801)"/><path d="M51.964 403.63h1.874v3.01h-1.874z" style="color:#000" transform="translate(408.24 636.67)scale(.30801)"/></g><g fill="#fff" stroke="#000" stroke-width=".354"><path d="M51.964 110.48h1.874v3.01h-1.874z" style="color:#000" transform="translate(408.24 733.89)scale(.30801)"/><path d="M51.964 403.63h1.874v3.01h-1.874z" style="color:#000" transform="translate(408.24 645.38)scale(.30801)"/></g><g fill="#fff" stroke="#000" stroke-width=".354"><path d="M51.964 110.48h1.874v3.01h-1.874z" style="color:#000" transform="translate(408.24 742.53)scale(.30801)"/><path d="M51.964 403.63h1.874v3.01h-1.874z" style="color:#000" transform="translate(408.24 654.02)scale(.30801)"/></g><path fill="#fff" stroke="#000" stroke-linejoin="bevel" stroke-width=".289" d="M431.8 759.51v20.389" style="color:#000"/><path stroke="#000" stroke-width=".226" d="m447.7 769.15-14.704 4.864V763.42z" style="color:#000"/><path fill="url(#i)" stroke="#000" stroke-width=".29" d="m413.54 754.74 2.128.019 18.67 5.091v19.311l-20.991 4.646.193-4.646z" style="color:#000"/><path fill="#fff" stroke="#000" stroke-width=".291" d="m365.63 745.65 19.637-.235c10.747.704 20.776 1.619 30.721 2.998l-1.882 41.521c-8.482 2.425-17.683 3.794-27.094 3.98h-20.826c-3.75-.306-7.423.041-10.11-5.842l-1.792-36.9c-.187-2.657 5.982-4.686 11.346-5.521z" style="color:#000"/><path fill="url(#j)" stroke="#000" stroke-width=".291" d="m356.07 788.12-1.793-36.9c-.098-1.403 1.577-2.632 4.044-3.548l2.118 45.283c-1.644-.697-3.114-2.086-4.369-4.835z" style="color:#000"/><path fill="#fff" stroke="#666" stroke-linejoin="bevel" stroke-width=".437" d="M370.86 745.6v48.341M392.83 746.03v47.655" style="color:#000"/><path fill="none" stroke="#000" stroke-width=".218" d="m420.55 757.86 4.979.803v3.64l-4.979-.374zM420.55 767.38l4.979-.038v3.685l-4.979.09zM420.55 777l4.979-1.165v3.685l-4.979 1.217z" style="color:#000"/><g stroke="#000" stroke-width=".354"><path d="M51.964 110.48h1.874v3.01h-1.874z" style="color:#000" transform="translate(408.24 725.18)scale(.30801)"/><path d="M51.964 403.63h1.874v3.01h-1.874z" style="color:#000" transform="translate(408.24 636.67)scale(.30801)"/></g><g stroke="#000" stroke-width=".354"><path d="M51.964 110.48h1.874v3.01h-1.874z" style="color:#000" transform="translate(408.24 733.89)scale(.30801)"/><path d="M51.964 403.63h1.874v3.01h-1.874z" style="color:#000" transform="translate(408.24 645.38)scale(.30801)"/></g><g stroke="#000" stroke-width=".354"><path d="M51.964 110.48h1.874v3.01h-1.874z" style="color:#000" transform="translate(408.24 742.53)scale(.30801)"/><path d="M51.964 403.63h1.874v3.01h-1.874z" style="color:#000" transform="translate(408.24 654.02)scale(.30801)"/></g><path fill="#fff" stroke="#000" stroke-linejoin="bevel" stroke-width=".289" d="M431.8 759.21v20.691" style="color:#000"/><path fill="#fff" stroke="#000" stroke-linecap="round" stroke-width=".35" d="m544.67 736.47 11.409-.543 2.664.305 4.7 2.275c-2.808 5.644-17.594 9.216-21.293 8.554-13.895-1.007-32.99-4.145-37.51-7.682z" style="color:#000"/><path fill="#fff" stroke="#000" stroke-linecap="round" stroke-width=".35" d="M569.15 728.26h11.341l2.664.304 4.158 2.208c-2.809 5.644-17.053 9.284-20.75 8.622-13.896-1.007-32.99-4.145-37.51-7.682z" style="color:#000"/><path fill="url(#k)" d="m449.57 736.26 149.61-25.201c1.015 1.183 3.405 1.9 4.805 2.24l-157.67 30.552c-12.652.603-1.205-7.23 3.254-7.591z" style="color:#000"/><path fill="none" stroke="#000" stroke-linejoin="bevel" stroke-width=".109" d="m580.9 728.19-6.417-.802 44.92-14.84" style="color:#000"/><path fill="none" stroke="#000" stroke-linecap="round" stroke-linejoin="bevel" stroke-width=".327" d="M625.11 711.91h2.828" style="color:#000"/><path fill="#fff" stroke="#4d4d4d" stroke-linecap="round" stroke-width=".109" d="M625.3 711.95c-.246.196-1.278.578-2.618 1.001-2.285.1-5.46.317-9.391.26-7.034.212-11.361-1.032-11.185-1.964-.035-1.074 5.927-1.235 11.069-.77 1.959.155 11.655 1.318 12.126 1.473z" style="color:#000"/><path fill="#ccc" d="M647.45 775.1c0 1.71.428 3.185-4.09 3.066-5.77 0-10.448-1.386-10.448-3.096s4.677-3.095 10.448-3.095c4.577-.12 4.09 1.415 4.09 3.125" filter="url(#l)" style="color:#000" transform="translate(408.24 472.72)scale(.30801)"/><g fill="none" stroke="#000" stroke-linejoin="bevel" stroke-width="1.063"><path d="m318.77 73.362 8.261 22.93M374.52 41.567l8.362 23.382M453.33 16.689l6.87 23.021" style="color:#000" transform="translate(408.24 725.05)scale(.30801)"/></g><rect width="7.201" height="2.897" x="390.63" y="771.55" fill="none" stroke="#000" stroke-linecap="round" stroke-width=".159" rx="1.2" ry="1.448" style="color:#000" transform="rotate(-3.147)"/><rect width="5.715" height="2.299" x="419.29" y="752.02" fill="none" stroke="#000" stroke-linecap="round" stroke-width=".127" rx=".952" ry="1.149" style="color:#000" transform="rotate(-.25)"/><path fill="none" stroke="#999" stroke-linejoin="bevel" stroke-width=".327" d="M900.23 704.85v37.612M845.68 719.46c6.539-4.243 12.367-5.805 19.453-7.149l8.09.013c5.004.61 10.064 1.273 13.7 4.289l3.158.988 33.22-5.196v10.492c-.29 2.804-1.13 3.748-3.5 4.802l-57.324 12.087h-5.46c-5.16-.684-15.367-6.178-24.983-10.57-.68-.388-1.405-.761-1.466-1.517.113-.968.962-1.428 1.846-1.827l10.288-4.038z" style="color:#000"/><path fill="none" stroke="#999" stroke-linejoin="bevel" stroke-width=".308" d="M855.05 707.2v38.595" style="color:#000"/><path fill="none" stroke="#999" stroke-linejoin="bevel" stroke-width=".327" d="M885.19 709.19v35.876M936.25 734.21v-21.265" style="color:#000"/><path fill="#fff" stroke="#000" stroke-linejoin="bevel" stroke-width=".327" d="M841.43 723.92c3.264-2.735 9.735-1.834 14.918-2.394l82.696-13.077c9.937-.973 18.425.791 27.074 2.394l-56.543 16.208c-22.079 2.593-66.271 5.274-68.146-3.131z" style="color:#000"/><path fill="none" stroke="#999" stroke-linejoin="bevel" stroke-width=".327" d="m900.52 735.66 35.731-6.8h21.41" style="color:#000"/><path fill="none" stroke="#000" stroke-linejoin="bevel" stroke-width=".218" d="M964.03 711.59c-8.353-.483-24.111.59-24.515-3.093 9.837-1.008 18.325.756 26.974 2.36l-2.969.85" style="color:#000"/><path fill="url(#m)" d="M853.23 722.07c-5.61 1.777-3.026 3.092.567 2.789l86.6-14.941c-.68-.357-.941-.82-1.138-1.344z" style="color:#000"/><path fill="none" stroke="#000" stroke-linejoin="bevel" stroke-width=".218" d="m864.01 729.2 77.686-18.661M896.56 728.29l59.126-17.038" style="color:#000"/><path fill="#676767" stroke="#000" stroke-linecap="round" stroke-width=".576" d="M-80.475 179.61a8.775 8.775 0 1 1-17.55 0 8.775 8.775 0 0 1 17.55 0z" style="color:#000" transform="translate(405.524 724.538)scale(.26135)"/><g transform="translate(408.24 636.49)scale(.30801)"><rect width=".766" height="4.979" x="-89.9" y="148.43" rx="0" ry="0" style="color:#000" transform="translate(0 287.36)"/><rect width=".766" height="9.306" x="-87.895" y="433.63" rx="0" ry="0" style="color:#000"/><rect width=".766" height="11.311" x="-85.889" y="432.63" rx="0" ry="0" style="color:#000"/></g><g transform="matrix(-.30801 0 0 .30801 356.152 636.49)"><rect width=".766" height="4.979" x="-89.9" y="148.43" rx="0" ry="0" style="color:#000" transform="translate(0 287.36)"/><rect width=".766" height="9.306" x="-87.895" y="433.63" rx="0" ry="0" style="color:#000"/><rect width=".766" height="11.311" x="-85.889" y="432.63" rx="0" ry="0" style="color:#000"/></g><path d="m91.439 771.122.08-.538 2.955.443-.065.436q-.505.399-1.05 1.103-.543.705-.899 1.482-.253.548-.403 1.222l-.576-.086q.09-.537.407-1.27a7 7 0 0 1 .802-1.383q.484-.651.984-1.073zM94.688 773.364q.12-.81.362-1.278c.242-.468.363-.54.61-.686q.368-.219.866-.144.367.056.622.245t.394.495.18.721q.044.416-.058 1.094-.12.804-.36 1.272t-.608.689q-.369.219-.87.144-.66-.1-.966-.629-.366-.637-.172-1.923m.576.087q-.17 1.123.038 1.535.207.41.593.47c.386.06.492-.054.705-.277s.375-.707.488-1.454q.17-1.127-.038-1.537t-.6-.469a.73.73 0 0 0-.665.234q-.353.375-.521 1.498M100.018 776.466l-.56-.084.536-3.57q-.231.162-.59.305-.356.144-.632.201l.08-.541q.504-.15.903-.412.4-.262.59-.536l.361.055z"/><path fill="none" stroke="#999" stroke-linejoin="bevel" stroke-width=".288" d="m679.02 693-.652 80.503" style="color:#000"/><path fill="none" stroke="#999" stroke-linejoin="bevel" stroke-width=".36" d="M562.73 742.59v34.654" style="color:#000"/><path fill="none" stroke="#999" stroke-linejoin="bevel" stroke-width=".327" d="M570.51 744.53v31.492" style="color:#000"/><path fill="none" stroke="#999" stroke-linejoin="bevel" stroke-width=".312" d="M584.22 750.09v22.159" style="color:#000"/><path fill="none" stroke="#999" stroke-linejoin="bevel" stroke-width=".327" d="M65.908 721.66H80.09" style="color:#000"/><path fill="#0ff" stroke="#4d4d4d" stroke-linecap="round" stroke-linejoin="round" stroke-width=".461" d="m60.377 718.48 5.4.696.168 4.704-6.28 1.026z" style="color:#000"/><path fill="none" stroke="#999" stroke-linejoin="bevel" stroke-width=".327" d="M80.147 701.48v66.536" style="color:#000"/><path fill="none" stroke="#999" stroke-linejoin="bevel" stroke-width=".304" d="M799.09 700.23v63.779" style="color:#000"/><path fill="none" stroke="#999" stroke-linejoin="bevel" stroke-width=".327" d="M817.63 705.85v53.721M799.48 706.22l-652.64-1.78c-22.338 1.256-43.929 3.467-66.759 7.18M37.702 749.84l42.445 2.95M799.3 706.23c34.078.188 67.289 1.243 101.37 3.6M840.6 722.75v25.797M678.63 695.74c40.339-.163 79.7 1.874 120.28 4.645" style="color:#000"/><path fill="#b3b3b3" stroke="#b3b3b3" stroke-linecap="round" stroke-width=".702" d="M-656.12 81.47a5.21 5.21 0 1 1-10.422 0 5.21 5.21 0 0 1 10.422 0z" style="color:#000" transform="translate(417.59 724.56)scale(.30801)"/><path fill="#b3b3b3" stroke="#b3b3b3" stroke-linecap="round" stroke-width=".702" d="M-656.12 81.47a5.21 5.21 0 1 1-10.422 0 5.21 5.21 0 0 1 10.422 0z" style="color:#000" transform="translate(417.59 719.82)scale(.30801)"/><path fill="#b3b3b3" stroke="#b3b3b3" stroke-linecap="round" stroke-width=".702" d="M-656.12 81.47a5.21 5.21 0 1 1-10.422 0 5.21 5.21 0 0 1 10.422 0z" style="color:#000" transform="translate(431.68 729.17)scale(.30801)"/><path fill="#b3b3b3" stroke="#b3b3b3" stroke-linecap="round" stroke-width=".216" d="M262.81 755.45h4.187v3.908h-4.187zM268.95 755.45h4.187v3.908h-4.187z" style="color:#000"/><g fill="#fff" stroke="#fff"><path stroke-width=".308" d="M917.95 590.336v-.825h3.034v.645q-.375.37-.764 1.06c-.39.69-.456.952-.592 1.47s-.203.984-.2 1.392h-.857q.022-.96.397-1.958c.375-.998.582-1.26 1-1.784zM923.031 589.43q.674 0 1.052.48.452.57.452 1.886 0 1.314-.455 1.888-.375.474-1.049.474-.675 0-1.09-.52-.413-.519-.413-1.852 0-1.308.455-1.882.375-.474 1.048-.474zm0 .736a.44.44 0 0 0-.287.103q-.126.101-.196.368-.092.344-.092 1.159c0 .815.028.916.083 1.12q.081.304.206.405a.44.44 0 0 0 .286.101.44.44 0 0 0 .288-.103q.126-.102.196-.367.09-.342.091-1.156c.001-.814-.027-.917-.082-1.12q-.082-.305-.207-.407a.44.44 0 0 0-.286-.103zM927.405 594.078h-.887v-3.345a3.1 3.1 0 0 1-1.147.673v-.805q.347-.114.755-.431.408-.318.559-.741h.72z"/></g><path fill="#0f0" stroke="#0f0" stroke-linecap="round" stroke-width=".347" d="M1746.8 767.03c0 2.304-7.847 4.172-13.742 4.172s-7.607-1.868-7.607-4.172 1.712-4.172 7.607-4.172 13.742 1.868 13.742 4.172z" filter="url(#c)" style="color:#000" transform="rotate(.755 -40911.82 44214.412)scale(.21075)"/></g></svg>